<svg width="366" height="240" viewBox="0 0 366 240" fill="none" xmlns="http://www.w3.org/2000/svg">
<g id="undraw_hello_re_3evm 1">
<g id="part2">
<path id="Vector" d="M342.137 101.595H27.7949C26.4602 101.595 25.1801 102.124 24.2363 103.065C23.2926 104.006 22.7623 105.282 22.7623 106.613C22.7623 107.943 23.2926 109.22 24.2363 110.161C25.1801 111.102 26.4602 111.63 27.7949 111.63H36.6987V231.666C36.6987 232.997 37.2289 234.273 38.1727 235.214C39.1165 236.155 40.3966 236.684 41.7313 236.684C43.066 236.684 44.3461 236.155 45.2899 235.214C46.2336 234.273 46.7639 232.997 46.7639 231.666L46.8403 111.63H299.132L322.394 231.666C322.394 232.997 322.924 234.273 323.868 235.214C324.812 236.155 326.092 236.684 327.426 236.684C328.761 236.684 330.041 236.155 330.985 235.214C331.929 234.273 332.459 232.997 332.459 231.666L333.923 111.63H342.137C343.472 111.63 344.752 111.102 345.696 110.161C346.639 109.22 347.17 107.943 347.17 106.613C347.17 105.282 346.639 104.006 345.696 103.065C344.752 102.124 343.472 101.595 342.137 101.595V101.595Z" fill="#CCCCCC"/>
<path id="Vector_2" d="M82.282 79.2375V100.486H28.8885C27.4892 100.534 26.094 100.307 24.7825 99.8183C23.4711 99.3292 22.2691 98.5874 21.2452 97.6352C20.2213 96.683 19.3955 95.539 18.815 94.2686C18.2345 92.9982 17.9107 91.6263 17.862 90.2311C17.8134 88.8359 18.0408 87.4449 18.5313 86.1373C19.0218 84.8298 19.7659 83.6314 20.7209 82.6105C21.676 81.5897 22.8233 80.7664 24.0975 80.1876C25.3717 79.6089 26.7478 79.286 28.1471 79.2375C28.3942 79.2289 28.6413 79.2289 28.8885 79.2375L82.282 79.2375Z" fill="#F2F2F2"/>
<path id="Vector_3" d="M83.5935 100.322C83.5934 100.539 83.507 100.747 83.3533 100.9C83.1996 101.053 82.9912 101.139 82.7738 101.139H27.9375C24.9606 101.137 22.1064 99.9567 20.0021 97.8573C17.8979 95.7578 16.7158 92.9113 16.7158 89.9432C16.7158 86.9752 17.8979 84.1286 20.0021 82.0292C22.1064 79.9297 24.9606 78.7492 27.9375 78.7471H82.7738C82.8817 78.7469 82.9885 78.7678 83.0882 78.8087C83.1878 78.8497 83.2784 78.9098 83.3548 78.9858C83.4311 79.0617 83.4917 79.1519 83.533 79.2511C83.5744 79.3504 83.5956 79.4569 83.5956 79.5644C83.5956 79.6719 83.5744 79.7783 83.533 79.8776C83.4917 79.9769 83.4311 80.0671 83.3548 80.143C83.2784 80.2189 83.1878 80.2791 83.0882 80.32C82.9885 80.361 82.8817 80.3819 82.7738 80.3816H27.9375C25.3966 80.3854 22.961 81.3945 21.1656 83.1872C19.3702 84.98 18.3618 87.4098 18.3618 89.9432C18.3618 92.4766 19.3702 94.9065 21.1656 96.6992C22.961 98.4919 25.3966 99.501 27.9375 99.5048H82.7738C82.9912 99.5049 83.1996 99.5911 83.3533 99.7443C83.507 99.8976 83.5934 100.105 83.5935 100.322Z" fill="#6279E9"/>
<path id="Vector_4" d="M82.282 84.1409H24.9047C24.8613 84.1411 24.8196 84.1242 24.7887 84.0939C24.7579 84.0635 24.7403 84.0222 24.7399 83.979C24.7395 83.9357 24.7563 83.8941 24.7866 83.8632C24.8169 83.8323 24.8583 83.8146 24.9017 83.814H82.282C82.3251 83.8145 82.3664 83.8319 82.3968 83.8625C82.4272 83.8931 82.4442 83.9344 82.4442 83.9775C82.4442 84.0205 82.4272 84.0619 82.3968 84.0925C82.3664 84.1231 82.3251 84.1405 82.282 84.1409Z" fill="#CCCCCC"/>
<path id="Vector_5" d="M82.282 88.0636H24.9047C24.8613 88.0638 24.8196 88.0469 24.7887 88.0166C24.7579 87.9862 24.7403 87.9449 24.7399 87.9017C24.7395 87.8585 24.7563 87.8168 24.7866 87.7859C24.8169 87.755 24.8583 87.7373 24.9017 87.7368H82.282C82.3251 87.7372 82.3664 87.7546 82.3968 87.7852C82.4272 87.8158 82.4442 87.8571 82.4442 87.9002C82.4442 87.9433 82.4272 87.9846 82.3968 88.0152C82.3664 88.0458 82.3251 88.0632 82.282 88.0636Z" fill="#CCCCCC"/>
<path id="Vector_6" d="M82.282 91.9863H24.9047C24.8613 91.9866 24.8196 91.9697 24.7887 91.9393C24.7579 91.909 24.7403 91.8676 24.7399 91.8244C24.7395 91.7812 24.7563 91.7395 24.7866 91.7086C24.8169 91.6777 24.8583 91.66 24.9017 91.6595H82.282C82.3251 91.6599 82.3664 91.6773 82.3968 91.7079C82.4272 91.7385 82.4442 91.7798 82.4442 91.8229C82.4442 91.866 82.4272 91.9073 82.3968 91.9379C82.3664 91.9685 82.3251 91.9859 82.282 91.9863Z" fill="#CCCCCC"/>
<path id="Vector_7" d="M82.282 95.909H24.9047C24.8613 95.9092 24.8196 95.8923 24.7887 95.862C24.7579 95.8316 24.7403 95.7903 24.7399 95.7471C24.7395 95.7038 24.7563 95.6622 24.7866 95.6313C24.8169 95.6004 24.8583 95.5827 24.9017 95.5821H82.282C82.3251 95.5826 82.3664 95.6 82.3968 95.6306C82.4272 95.6612 82.4442 95.7025 82.4442 95.7456C82.4442 95.7886 82.4272 95.83 82.3968 95.8606C82.3664 95.8912 82.3251 95.9086 82.282 95.909Z" fill="#CCCCCC"/>
<path id="Vector_8" d="M72.2168 56.8514V78.0995H18.8233C15.9973 78.1975 13.2479 77.1722 11.18 75.2491C9.11213 73.326 7.89518 70.6627 7.79686 67.8451C7.69854 65.0274 8.72691 62.2862 10.6557 60.2245C12.5846 58.1628 15.2558 56.9495 18.0819 56.8514C18.329 56.8429 18.5761 56.8429 18.8233 56.8514H72.2168Z" fill="#F2F2F2"/>
<path id="Vector_9" d="M73.5283 77.936C73.5283 78.1527 73.4419 78.3606 73.2882 78.5138C73.1345 78.667 72.926 78.7532 72.7087 78.7533H17.8724C14.8941 78.7533 12.0379 77.5737 9.93191 75.474C7.82596 73.3743 6.64285 70.5266 6.64285 67.5572C6.64285 64.5878 7.82596 61.74 9.93191 59.6404C12.0379 57.5407 14.8941 56.3611 17.8724 56.3611H72.7087C72.8163 56.3611 72.9229 56.3823 73.0224 56.4233C73.1218 56.4644 73.2122 56.5246 73.2883 56.6005C73.3644 56.6764 73.4248 56.7665 73.466 56.8656C73.5072 56.9648 73.5284 57.071 73.5284 57.1783C73.5284 57.2857 73.5072 57.3919 73.466 57.4911C73.4248 57.5902 73.3644 57.6803 73.2883 57.7562C73.2122 57.8321 73.1218 57.8923 73.0224 57.9334C72.9229 57.9744 72.8163 57.9956 72.7087 57.9956H17.8724C15.3289 57.9956 12.8896 59.003 11.0911 60.7961C9.2926 62.5893 8.28221 65.0213 8.28221 67.5572C8.28221 70.0931 9.2926 72.5251 11.0911 74.3183C12.8896 76.1114 15.3289 77.1188 17.8724 77.1188H72.7087C72.926 77.1189 73.1345 77.205 73.2882 77.3583C73.4419 77.5115 73.5282 77.7193 73.5283 77.936Z" fill="#3F3D56"/>
<path id="Vector_10" d="M72.2168 61.7548H14.8395C14.7962 61.755 14.7545 61.7381 14.7236 61.7078C14.6927 61.6774 14.6751 61.6361 14.6747 61.5929C14.6743 61.5496 14.6911 61.508 14.7215 61.4771C14.7518 61.4462 14.7932 61.4285 14.8365 61.4279H72.2168C72.26 61.4284 72.3013 61.4458 72.3317 61.4764C72.362 61.507 72.3791 61.5483 72.3791 61.5914C72.3791 61.6344 72.362 61.6758 72.3317 61.7064C72.3013 61.737 72.26 61.7544 72.2168 61.7548V61.7548Z" fill="#CCCCCC"/>
<path id="Vector_11" d="M72.2168 65.6775H14.8395C14.7962 65.6778 14.7545 65.6609 14.7236 65.6305C14.6927 65.6002 14.6751 65.5589 14.6747 65.5156C14.6743 65.4724 14.6911 65.4307 14.7215 65.3998C14.7518 65.3689 14.7932 65.3512 14.8365 65.3506H72.2168C72.26 65.3511 72.3013 65.3685 72.3317 65.3991C72.362 65.4297 72.3791 65.471 72.3791 65.5141C72.3791 65.5572 72.362 65.5985 72.3317 65.6291C72.3013 65.6597 72.26 65.6771 72.2168 65.6775Z" fill="#CCCCCC"/>
<path id="Vector_12" d="M72.2168 69.6002H14.8395C14.7962 69.6005 14.7545 69.5836 14.7236 69.5532C14.6927 69.5229 14.6751 69.4816 14.6747 69.4383C14.6743 69.3951 14.6911 69.3534 14.7215 69.3225C14.7518 69.2916 14.7932 69.2739 14.8365 69.2734H72.2168C72.26 69.2738 72.3013 69.2912 72.3317 69.3218C72.362 69.3524 72.3791 69.3938 72.3791 69.4368C72.3791 69.4799 72.362 69.5212 72.3317 69.5518C72.3013 69.5824 72.26 69.5998 72.2168 69.6002Z" fill="#CCCCCC"/>
<path id="Vector_13" d="M72.2168 73.5229H14.8395C14.7962 73.5232 14.7545 73.5063 14.7236 73.4759C14.6927 73.4456 14.6751 73.4042 14.6747 73.361C14.6743 73.3178 14.6911 73.2761 14.7215 73.2452C14.7518 73.2143 14.7932 73.1966 14.8365 73.196H72.2168C72.26 73.1965 72.3013 73.2139 72.3317 73.2445C72.362 73.2751 72.3791 73.3164 72.3791 73.3595C72.3791 73.4026 72.362 73.4439 72.3317 73.4745C72.3013 73.5051 72.26 73.5225 72.2168 73.5229V73.5229Z" fill="#CCCCCC"/>
<path id="Vector_14" d="M134.33 176.783V158.256C134.33 157.437 134.003 156.652 133.423 156.073C132.842 155.494 132.054 155.169 131.233 155.169H60.7767C59.9553 155.169 59.1676 155.494 58.5868 156.073C58.006 156.652 57.6797 157.437 57.6797 158.256V176.783H134.33Z" fill="#CCCCCC"/>
<path id="Vector_15" d="M134.33 183.73H57.6797V207.66H134.33V183.73Z" fill="#CCCCCC"/>
<path id="Vector_16" d="M57.6797 214.608V233.134C57.6797 233.953 58.006 234.738 58.5868 235.317C59.1676 235.896 59.9553 236.222 60.7767 236.222H131.233C132.054 236.222 132.842 235.896 133.423 235.317C134.003 234.738 134.33 233.953 134.33 233.134V214.608H57.6797Z" fill="#CCCCCC"/>
<path id="Vector_17" d="M95.6176 169.063C96.9004 169.063 97.9403 168.027 97.9403 166.748C97.9403 165.469 96.9004 164.432 95.6176 164.432C94.3347 164.432 93.2948 165.469 93.2948 166.748C93.2948 168.027 94.3347 169.063 95.6176 169.063Z" fill="white"/>
<path id="Vector_18" d="M95.6176 199.941C96.9004 199.941 97.9403 198.904 97.9403 197.625C97.9403 196.346 96.9004 195.309 95.6176 195.309C94.3347 195.309 93.2948 196.346 93.2948 197.625C93.2948 198.904 94.3347 199.941 95.6176 199.941Z" fill="white"/>
<path id="Vector_19" d="M95.742 230.164C97.0248 230.164 98.0647 229.128 98.0647 227.849C98.0647 226.57 97.0248 225.533 95.742 225.533C94.4592 225.533 93.4193 226.57 93.4193 227.849C93.4193 229.128 94.4592 230.164 95.742 230.164Z" fill="white"/>
<path id="Vector_20" d="M125.639 134.045V155.293H72.2461C69.4212 155.389 66.6737 154.363 64.6074 152.44C62.5411 150.517 61.3252 147.855 61.2268 145.039C61.1284 142.222 62.1557 139.482 64.0828 137.421C66.01 135.359 68.6792 134.145 71.5039 134.045C71.7512 134.036 71.9986 134.036 72.2461 134.045H125.639Z" fill="#F2F2F2"/>
<path id="Vector_21" d="M126.951 155.129C126.951 155.346 126.865 155.554 126.711 155.707C126.557 155.86 126.349 155.947 126.131 155.947H71.2951C68.3175 155.947 65.4615 154.769 63.3552 152.671C61.2488 150.572 60.0645 147.726 60.0627 144.757C60.061 141.789 61.2418 138.941 63.3456 136.84C65.4494 134.739 68.304 133.557 71.2816 133.554H126.131C126.239 133.554 126.346 133.575 126.446 133.616C126.545 133.657 126.636 133.717 126.712 133.793C126.789 133.869 126.849 133.959 126.891 134.058C126.932 134.158 126.953 134.264 126.953 134.372C126.953 134.479 126.932 134.586 126.891 134.685C126.849 134.784 126.789 134.874 126.712 134.95C126.636 135.026 126.545 135.086 126.446 135.127C126.346 135.168 126.239 135.189 126.131 135.189H71.2951C68.7538 135.192 66.3177 136.201 64.5219 137.994C62.7261 139.787 61.7174 142.217 61.7174 144.751C61.7174 147.284 62.7261 149.714 64.5219 151.507C66.3177 153.3 68.7538 154.309 71.2951 154.312H126.131C126.349 154.312 126.557 154.398 126.711 154.552C126.865 154.705 126.951 154.913 126.951 155.129V155.129Z" fill="#3F3D56"/>
<path id="Vector_22" d="M125.639 138.948H68.2622C68.2189 138.948 68.1772 138.931 68.1463 138.901C68.1154 138.871 68.0978 138.829 68.0974 138.786C68.097 138.743 68.1138 138.701 68.1441 138.67C68.1745 138.64 68.2158 138.622 68.2592 138.621H125.64C125.683 138.622 125.724 138.639 125.754 138.67C125.785 138.7 125.802 138.742 125.802 138.785C125.802 138.828 125.785 138.869 125.754 138.9C125.724 138.93 125.683 138.948 125.64 138.948H125.639Z" fill="#CCCCCC"/>
<path id="Vector_23" d="M125.639 142.871H68.2622C68.2189 142.871 68.1772 142.854 68.1463 142.824C68.1154 142.794 68.0978 142.752 68.0974 142.709C68.097 142.666 68.1138 142.624 68.1441 142.593C68.1745 142.562 68.2158 142.545 68.2592 142.544H125.64C125.683 142.544 125.724 142.562 125.754 142.592C125.785 142.623 125.802 142.664 125.802 142.707C125.802 142.751 125.785 142.792 125.754 142.822C125.724 142.853 125.683 142.871 125.64 142.871H125.639Z" fill="#CCCCCC"/>
<path id="Vector_24" d="M125.639 146.794H68.2622C68.2189 146.794 68.1772 146.777 68.1463 146.747C68.1154 146.716 68.0978 146.675 68.0974 146.632C68.097 146.588 68.1138 146.547 68.1441 146.516C68.1745 146.485 68.2158 146.467 68.2592 146.467H125.64C125.683 146.467 125.724 146.485 125.754 146.515C125.785 146.546 125.802 146.587 125.802 146.63C125.802 146.673 125.785 146.715 125.754 146.745C125.724 146.776 125.683 146.793 125.64 146.794H125.639Z" fill="#CCCCCC"/>
<path id="Vector_25" d="M125.639 150.716H68.2622C68.2189 150.717 68.1772 150.7 68.1463 150.669C68.1154 150.639 68.0978 150.598 68.0974 150.554C68.097 150.511 68.1138 150.47 68.1441 150.439C68.1745 150.408 68.2158 150.39 68.2592 150.389H125.64C125.683 150.39 125.724 150.407 125.754 150.438C125.785 150.468 125.802 150.51 125.802 150.553C125.802 150.596 125.785 150.637 125.754 150.668C125.724 150.698 125.683 150.716 125.64 150.716H125.639Z" fill="#CCCCCC"/>
<path id="Vector_26" d="M62.9317 49.7631H38.6051C38.3742 49.763 38.1464 49.8158 37.9393 49.9175L31.7995 52.9821C31.5974 53.0677 31.4251 53.2107 31.304 53.3933C31.1829 53.5758 31.1183 53.7899 31.1183 54.0088C31.1183 54.2276 31.1829 54.4417 31.304 54.6242C31.4251 54.8068 31.5974 54.9498 31.7995 55.0354L37.9393 58.1C38.1464 58.2017 38.3742 58.2546 38.6051 58.2544H62.9317C63.2669 58.2737 63.5963 58.1606 63.8485 57.9395C64.1007 57.7185 64.2554 57.4073 64.279 57.0733V50.9442C64.2553 50.6102 64.1007 50.299 63.8485 50.078C63.5963 49.8569 63.2669 49.7438 62.9317 49.7631V49.7631Z" fill="#3F3D56"/>
<path id="Vector_27" d="M64.279 50.9442V57.0733C64.2554 57.4073 64.1007 57.7185 63.8485 57.9396C63.5963 58.1606 63.2669 58.2738 62.9317 58.2544H58.0851V49.7631H62.9317C63.2669 49.7438 63.5963 49.8569 63.8485 50.078C64.1007 50.299 64.2554 50.6103 64.279 50.9442Z" fill="#6279E9"/>
<path id="Vector_28" d="M200.581 101.113L198.013 100.034L196.251 87.1969H172.787L170.877 99.982L168.579 101.127C168.469 101.182 168.381 101.273 168.329 101.384C168.277 101.495 168.264 101.62 168.292 101.739C168.32 101.858 168.388 101.965 168.485 102.041C168.581 102.117 168.7 102.158 168.823 102.158H200.37C200.496 102.158 200.618 102.115 200.715 102.035C200.813 101.956 200.88 101.845 200.905 101.722C200.929 101.599 200.911 101.471 200.852 101.36C200.793 101.249 200.697 101.161 200.581 101.113V101.113Z" fill="#CCCCCC"/>
<path id="Vector_29" d="M242.278 89.4503H127.017C126.412 89.449 125.833 89.2085 125.406 88.7817C124.978 88.3549 124.739 87.7765 124.739 87.1736V70.9687H244.557V87.1736C244.557 87.7765 244.317 88.3549 243.89 88.7817C243.463 89.2085 242.883 89.449 242.278 89.4503V89.4503Z" fill="#CCCCCC"/>
<path id="Vector_30" d="M244.677 78.0821H124.633V8.74455C124.634 8.01689 124.924 7.31928 125.441 6.80476C125.957 6.29023 126.656 6.00081 127.386 6H241.924C242.654 6.00081 243.354 6.29023 243.87 6.80476C244.386 7.31928 244.677 8.01689 244.677 8.74455L244.677 78.0821Z" fill="#3F3D56"/>
</g>
<path id="screen3" d="M237.508 73.0495H131.803C131.24 73.0489 130.701 72.8258 130.303 72.4291C129.905 72.0325 129.681 71.4947 129.681 70.9337V13.1484C129.681 12.5874 129.905 12.0496 130.303 11.6529C130.701 11.2562 131.24 11.033 131.803 11.0324H237.508C238.07 11.033 238.61 11.2562 239.008 11.6529C239.405 12.0496 239.629 12.5874 239.63 13.1484V70.9337C239.629 71.4947 239.405 72.0325 239.008 72.4291C238.61 72.8258 238.07 73.0489 237.508 73.0495Z" fill="white"/>
<g id="part1">
<path id="Vector_31" d="M209.667 93.4391C210.349 92.8106 211.161 92.3389 212.047 92.0573C212.932 91.7757 213.868 91.691 214.789 91.8092C215.711 91.9274 216.595 92.2455 217.38 92.7413C218.164 93.2371 218.831 93.8983 219.331 94.6786L233.629 92.1441L237.293 100.431L217.051 103.728C215.681 104.479 214.082 104.704 212.556 104.359C211.031 104.013 209.686 103.122 208.775 101.854C207.865 100.586 207.453 99.0284 207.617 97.4776C207.782 95.9267 208.511 94.4898 209.667 93.4391V93.4391Z" fill="#FFB6B6"/>
<path id="Vector_32" d="M222.904 104.021L237.81 103.835L239.697 103.81L270.023 103.429C270.023 103.429 278.258 95.5956 285.429 87.5308L284.424 80.2826C283.444 73.1692 279.905 66.6533 274.465 61.9474C264.195 68.7896 258.239 82.333 258.239 82.333L239.435 86.8171L237.554 87.2656L225.87 90.0492L222.904 104.021Z" fill="#6279E9"/>
<path id="Vector_33" d="M299.208 148.571H271.385C271.385 149.76 240.97 150.724 240.97 150.724C240.299 151.228 239.688 151.806 239.147 152.447C237.524 154.377 236.636 156.818 236.642 159.337V161.06C236.643 163.915 237.781 166.653 239.806 168.672C241.831 170.691 244.577 171.826 247.44 171.827H299.208C302.071 171.824 304.817 170.689 306.841 168.67C308.866 166.652 310.005 163.915 310.007 161.06V159.337C310.003 156.483 308.864 153.747 306.84 151.729C304.815 149.71 302.071 148.575 299.208 148.571V148.571Z" fill="#CCCCCC"/>
<path id="Vector_34" d="M278.975 171.399H267.745V236.029H278.975V171.399Z" fill="#CCCCCC"/>
<path id="Vector_35" d="M235.78 235.636C235.78 236.846 252.799 236.104 273.792 236.104C294.785 236.104 311.803 236.846 311.803 235.636C311.803 234.426 294.785 224.832 273.792 224.832C252.799 224.832 235.78 234.426 235.78 235.636Z" fill="#CCCCCC"/>
<path id="Vector_36" d="M228.236 228.251L219.878 228.251L215.902 196.108L228.237 196.108L228.236 228.251Z" fill="#FFB6B6"/>
<path id="Vector_37" d="M230.368 236.329L203.417 236.328V235.988C203.417 233.215 204.523 230.555 206.49 228.593C208.457 226.632 211.125 225.53 213.907 225.53H213.908L230.368 225.531L230.368 236.329Z" fill="#2F2E41"/>
<path id="Vector_38" d="M203.533 228.251L195.174 228.251L191.198 196.108L203.534 196.108L203.533 228.251Z" fill="#FFB6B6"/>
<path id="Vector_39" d="M205.664 236.329L178.713 236.328V235.988C178.714 233.215 179.819 230.555 181.786 228.593C183.753 226.632 186.421 225.53 189.203 225.53H189.204L205.665 225.531L205.664 236.329Z" fill="#2F2E41"/>
<path id="Vector_40" d="M278.404 43.2001C286.431 43.2001 292.937 36.7129 292.937 28.7106C292.937 20.7083 286.431 14.2212 278.404 14.2212C270.378 14.2212 263.872 20.7083 263.872 28.7106C263.872 36.7129 270.378 43.2001 278.404 43.2001Z" fill="#FFB6B6"/>
<path id="Vector_41" d="M301.925 127.987C301.925 127.987 306.802 153.694 288.248 156.968C269.695 160.242 242.913 162.543 242.913 162.543L230.887 218.488L214.729 217.05C214.729 217.05 216.878 149.704 222.162 144.435C227.447 139.166 260.848 123.39 260.848 123.39L301.925 127.987Z" fill="#2F2E41"/>
<path id="Vector_42" d="M265.69 117.213L257.576 125.328C257.576 125.328 198.986 134.738 196.726 148.23C193.313 168.599 189.283 212.894 189.283 212.894L206.898 211.577L213.806 161.225L241.991 154.833L274.057 137.41L265.69 117.213Z" fill="#2F2E41"/>
<path id="Vector_43" d="M292.389 20.0615C290.954 17.3629 289.132 11.9845 286.236 10.987C284.628 10.4554 282.966 10.1024 281.28 9.93445L276.359 11.8218L279.037 9.74467C278.516 9.7137 277.994 9.68837 277.474 9.6687L274.153 10.9421L275.852 9.62464C272.756 9.59296 269.56 9.9139 267.161 11.7929C265.116 13.3948 263.09 19.463 262.763 22.0352C262.412 24.4959 262.535 27.0005 263.124 29.4155L263.965 30.2128C264.259 29.5403 264.48 28.8383 264.625 28.1189C264.926 26.7747 265.505 25.5078 266.325 24.399C267.145 23.2902 268.187 22.3639 269.386 21.679L269.431 21.6533C270.842 20.8618 272.553 20.8983 274.171 20.9563L281.853 21.232C283.701 21.2983 285.691 21.4149 287.132 22.5707C288.048 23.4234 288.768 24.4634 289.243 25.6194C289.959 27.0602 291.358 32.4944 291.358 32.4944C291.358 32.4944 292.15 31.4687 292.529 32.2321C293.137 30.2402 293.507 28.1834 293.631 26.1048C293.752 24.0169 293.324 21.9337 292.389 20.0615V20.0615Z" fill="#2F2E41"/>
<path id="Vector_44" d="M272.976 130.383C267.749 128.583 262.344 126.721 256.515 126.023L256.264 125.992L256.333 125.751C262.368 104.625 260.862 91.1108 257.905 70.8109C257.276 66.4322 258.084 61.9682 260.208 58.085C262.333 54.2019 265.66 51.1078 269.693 49.2648L269.729 49.2487L286.379 48.1938L286.417 48.1915L298.527 51.7423C300.269 52.2569 301.793 53.3268 302.867 54.7879C303.941 56.249 304.505 58.0209 304.472 59.832C304.341 66.5081 304.619 73.9616 304.914 81.8526C305.574 99.5557 306.258 117.862 302.38 129.739L302.36 129.801L302.308 129.842C298.744 132.736 294.278 134.3 289.681 134.264C284.246 134.264 278.699 132.354 272.976 130.383Z" fill="#6279E9"/>
<path id="Vector_45" d="M365.471 237.273H0.528903C0.388629 237.273 0.254102 237.215 0.154914 237.113C0.055726 237.011 0 236.872 0 236.727C0 236.583 0.055726 236.444 0.154914 236.342C0.254102 236.239 0.388629 236.182 0.528903 236.182H365.471C365.611 236.182 365.746 236.239 365.845 236.342C365.944 236.444 366 236.583 366 236.727C366 236.872 365.944 237.011 365.845 237.113C365.746 237.215 365.611 237.273 365.471 237.273Z" fill="#CCCCCC"/>
</g>
<g id="hand2">
<path id="Vector_46" d="M343.218 35.0737C342.291 35.1346 341.389 35.3974 340.575 35.8435C339.76 36.2897 339.054 36.9085 338.506 37.6562C337.957 38.4039 337.58 39.2624 337.401 40.1712C337.221 41.08 337.244 42.017 337.466 42.9162L325.78 51.511L329.286 59.8656L345.619 47.4969C347.109 47.0234 348.374 46.0214 349.173 44.6805C349.971 43.3397 350.249 41.7534 349.953 40.222C349.657 38.6907 348.808 37.3208 347.567 36.372C346.325 35.4231 344.778 34.9612 343.218 35.0737V35.0737Z" fill="#FFB6B6"/>
<path id="Vector_47" d="M341.337 52.6202L312.04 85.0608C312.04 85.0608 298.03 80.589 287.195 75.741L282.327 60.8349C281.196 57.3769 280.714 53.7409 280.904 50.1088C295.925 46.1237 313.396 60.9517 313.396 60.9517L335.326 43.8251L341.337 52.6202Z" fill="#6279E9"/>
</g>
</g>
</svg>
