<svg width="238" height="245" viewBox="0 0 238 245" fill="none" xmlns="http://www.w3.org/2000/svg">
<g id="undraw_dev_productivity_umsq 1">
<path id="leaf2" d="M200.048 111.379C194.223 117.909 193.192 126.668 192.259 135.602C191.563 142.209 190.921 148.915 188.432 154.889C186.329 159.852 182.981 164.19 178.711 167.485C178.329 167.783 177.939 168.071 177.541 168.351H156.304C156.271 168.063 156.245 167.772 156.22 167.485C155.306 156.612 157.775 145.723 163.291 136.304C165.497 132.616 168.161 129.219 171.218 126.195C174.531 131.972 178.62 137.557 178.62 137.557L176.772 121.364C183.602 116.194 191.591 112.766 200.048 111.379V111.379Z" fill="#A3FFB2"/>
<path id="leaf1" d="M235.008 130.458C220.866 136.112 216.7 154.266 205.183 164.226C203.761 165.452 202.229 166.542 200.605 167.485C200.08 167.79 199.548 168.082 199.005 168.351H168.433C168.506 168.063 168.575 167.772 168.652 167.485C171.91 154.856 179.991 143.476 190.979 136.395C191.402 136.122 191.829 135.857 192.259 135.602C195.517 133.651 198.981 132.066 202.588 130.877C202.974 137.52 204.141 144.343 204.141 144.343L209.717 129.027C218.138 127.442 226.82 127.933 235.008 130.458V130.458Z" fill="#A3FFB2"/>
<path id="Vector" d="M234.964 167.918C234.964 167.975 234.953 168.031 234.931 168.084C234.909 168.136 234.878 168.184 234.837 168.225C234.797 168.265 234.749 168.297 234.696 168.318C234.644 168.34 234.587 168.351 234.53 168.351H2.98499C2.86996 168.351 2.75964 168.305 2.6783 168.224C2.59696 168.143 2.55127 168.033 2.55127 167.918C2.55127 167.803 2.59696 167.693 2.6783 167.612C2.75964 167.53 2.86996 167.485 2.98499 167.485H234.53C234.587 167.484 234.644 167.496 234.696 167.517C234.749 167.539 234.797 167.571 234.837 167.611C234.878 167.651 234.909 167.699 234.931 167.752C234.953 167.804 234.964 167.861 234.964 167.918V167.918Z" fill="#CCCCCC"/>
<g id="hand1">
<path id="Vector_2" d="M80.0129 31.7099C80.5561 32.3329 80.956 33.0673 81.1843 33.8613C81.4127 34.6553 81.4639 35.4897 81.3345 36.3057C81.2051 37.1216 80.8981 37.8993 80.4352 38.5839C79.9723 39.2686 79.3648 39.8435 78.6553 40.2683L82.7678 59.9253L73.0537 56.0837L70.6377 38.0061C70.0023 36.7684 69.8435 35.3409 70.1915 33.9941C70.5394 32.6474 71.3699 31.4749 72.5255 30.6988C73.6811 29.9227 75.0815 29.597 76.4615 29.7834C77.8415 29.9697 79.1051 30.6552 80.0129 31.71L80.0129 31.7099Z" fill="#FFB6B6"/>
<path id="Vector_3" d="M70.7336 44.8459L74.6619 80.9789L74.8011 81.0471C74.9158 81.1034 79.8926 83.5415 86.0016 86.4452C87.0322 86.9351 86.0016 86.2632 88.2022 87.734C89.8423 88.0981 90.6627 88.6459 91.4124 88.9961C98.0899 92.115 104.842 95.1479 107.533 95.9696C111.166 97.1193 115.083 96.9933 118.634 95.6127L118.72 95.5735L118.765 95.4905C119.672 93.7927 119.973 91.8369 119.618 89.9454C119.263 88.0538 118.273 86.3396 116.812 85.0852C109.725 79.0667 101.334 74.7758 92.3025 72.5512L87.1634 71.2918L80.5816 45.5522L70.7336 44.8459Z" fill="#6279E9"/>
</g>
<g id="cloud">
<path id="Vector_4" d="M104.268 18.9738C103.536 16.2998 102.031 13.9006 99.9422 12.0757C97.853 10.2508 95.2718 9.08102 92.521 8.71255C92.4601 8.70351 92.4022 8.71546 92.3415 8.71133C92.2632 8.68616 92.1832 8.66679 92.102 8.65336C79.2707 6.9104 64.459 13.3604 59.1113 26.1458C56.4637 22.4599 52.2423 20.0786 47.7274 20.3154C41.9676 20.6174 36.8844 25.0241 35.3273 30.8202C35.2414 31.1686 35.2648 31.535 35.3944 31.8696C35.524 32.2043 35.7534 32.4911 36.0517 32.6911C37.0579 33.4485 37.7452 33.9794 38.9831 34.255C41.3134 34.7739 43.6519 35.2492 45.9988 35.6809C50.5782 36.5232 55.1815 37.2042 59.8088 37.7239C69.1978 38.7817 78.6514 39.1572 88.095 38.8476C91.2398 38.7446 94.2724 38.6349 97.1538 37.1762C99.2725 36.0673 101.064 34.4241 102.35 32.4099C104.866 28.5733 105.531 23.4172 104.268 18.9738Z" fill="#3F3D56"/>
<path id="Vector_5" d="M102.854 19.651C102.16 17.2792 100.774 15.1678 98.8739 13.5861C96.898 11.9759 94.5107 10.9495 91.9817 10.6228H91.8286L91.6865 10.5973C91.6412 10.583 91.5949 10.5721 91.548 10.5645C87.3167 10.0623 83.0284 10.3687 78.9118 11.4673C70.9991 13.546 63.5056 18.4678 60.0066 26.4076L59.5073 27.547L58.7601 26.5532C56.3 23.3023 52.6115 21.4057 48.8028 21.4057C48.6133 21.4057 48.4237 21.4093 48.2306 21.4202C42.9384 21.6823 38.2222 25.4829 36.757 30.6632C36.7203 30.8466 36.7421 31.0369 36.8192 31.2073C36.8963 31.3777 37.025 31.5197 37.1871 31.6134L37.2454 31.6571C38.1821 32.3233 38.747 32.7273 39.7857 32.9494C42.0491 33.4299 44.3526 33.8741 46.6305 34.2709C51.0479 35.0427 55.5819 35.6797 60.1014 36.1639C68.0947 37.021 76.1326 37.3942 84.1711 37.2815C85.3483 37.2669 86.5231 37.2415 87.6955 37.2051C90.7134 37.114 93.5672 37.023 96.2716 35.7234C98.2093 34.7644 99.8645 33.3193 101.075 31.5297C102.221 29.7991 102.974 27.839 103.281 25.787C103.589 23.735 103.443 21.6407 102.854 19.651V19.651Z" fill="white"/>
<path id="Vector_6" d="M84.1711 37.2815C76.1327 37.3943 68.0947 37.021 60.1014 36.1639C55.582 35.6798 51.0479 35.0427 46.6305 34.2709C44.3526 33.8741 42.0491 33.43 39.7857 32.9494C38.747 32.7274 38.1821 32.3233 37.2454 31.6571L37.1871 31.6134C37.025 31.5198 36.8963 31.3778 36.8192 31.2073C36.7421 31.0369 36.7203 30.8467 36.757 30.6633C38.2222 25.483 42.9384 21.6824 48.2306 21.4202C48.4237 21.4093 48.6133 21.4057 48.8028 21.4057C52.6115 21.4057 56.3 23.3023 58.7601 26.5532L59.5073 27.5471L60.0066 26.4076C63.5056 18.4679 70.9991 13.546 78.9118 11.4673C80.5082 12.909 81.536 15.1187 80.9528 17.1682C80.2494 19.6546 77.4648 21.2055 76.9983 23.7465C76.5719 26.0654 78.2339 28.2205 79.9432 29.8442C81.6526 31.4642 83.6317 33.0914 84.1274 35.3922C84.26 36.0137 84.2749 36.6545 84.1711 37.2815V37.2815Z" fill="#6279E9"/>
<path id="Vector_7" d="M91.0414 30.2155C94.6647 30.2155 97.6019 27.2817 97.6019 23.6627C97.6019 20.0438 94.6647 17.11 91.0414 17.11C87.4181 17.11 84.4809 20.0438 84.4809 23.6627C84.4809 27.2817 87.4181 30.2155 91.0414 30.2155Z" fill="#6279E9"/>
<path id="Vector_8" d="M93.7915 22.9636L91.3313 20.5063C91.2932 20.4683 91.248 20.4381 91.1983 20.4175C91.1486 20.3969 91.0952 20.3864 91.0414 20.3864C90.9876 20.3864 90.9342 20.3969 90.8845 20.4175C90.8347 20.4381 90.7896 20.4683 90.7515 20.5063L88.2913 22.9636C88.2145 23.0404 88.1714 23.1446 88.1714 23.2531C88.1715 23.3617 88.2147 23.4657 88.2915 23.5425C88.3684 23.6193 88.4726 23.6624 88.5813 23.6624C88.69 23.6625 88.7942 23.6194 88.8711 23.5427L90.6314 21.7846V26.5296C90.6314 26.6382 90.6746 26.7423 90.7514 26.8192C90.8283 26.896 90.9326 26.9391 91.0414 26.9391C91.1501 26.9391 91.2544 26.896 91.3313 26.8192C91.4082 26.7423 91.4514 26.6382 91.4514 26.5296V21.7846L93.2117 23.5427C93.2497 23.5808 93.2949 23.611 93.3447 23.6317C93.3944 23.6523 93.4478 23.6629 93.5016 23.6629C93.5555 23.6629 93.6089 23.6524 93.6586 23.6318C93.7084 23.6112 93.7536 23.581 93.7917 23.543C93.8298 23.5049 93.86 23.4598 93.8806 23.4101C93.9012 23.3603 93.9118 23.3071 93.9118 23.2533C93.9118 23.1994 93.9011 23.1462 93.8805 23.0965C93.8598 23.0468 93.8296 23.0016 93.7915 22.9636Z" fill="white"/>
</g>
<g id="man">
<path id="Vector_9" d="M148.125 171.148H107.663C105.794 171.149 103.942 170.782 102.215 170.068C100.487 169.354 98.9177 168.307 97.5954 166.987C96.2731 165.667 95.2242 164.1 94.5085 162.375C93.7929 160.65 93.4246 158.801 93.4246 156.933C93.4246 155.066 93.7929 153.217 94.5085 151.492C95.2242 149.767 96.2731 148.199 97.5954 146.879C98.9177 145.559 100.487 144.512 102.215 143.798C103.942 143.085 105.794 142.718 107.663 142.719H148.125C149.995 142.718 151.846 143.085 153.574 143.798C155.301 144.512 156.871 145.559 158.193 146.879C159.515 148.199 160.564 149.767 161.28 151.492C161.996 153.217 162.364 155.066 162.364 156.933C162.364 158.801 161.996 160.65 161.28 162.375C160.564 164.1 159.515 165.667 158.193 166.987C156.871 168.307 155.301 169.354 153.574 170.068C151.846 170.782 149.995 171.149 148.125 171.148V171.148Z" fill="#2F2E41"/>
<path id="Vector_10" d="M110.784 222.977L116.294 226.908L134.1 207.55L125.967 201.747L110.784 222.977Z" fill="#FFB6B6"/>
<path id="Vector_11" d="M110.664 220.176L112.215 221.283L120.029 223.144L121.516 227.92L121.516 227.92C123.35 229.229 124.589 231.212 124.959 233.432C125.329 235.653 124.801 237.93 123.491 239.762L123.331 239.986L105.563 227.309L110.664 220.176Z" fill="#2F2E41"/>
<path id="Vector_12" d="M142.067 165.639L136.787 157.884C136.14 149.469 142.625 142.057 151.074 141.891C155.778 141.799 160.377 144.053 162.83 151.675C169.137 171.276 126.883 216.628 126.883 216.628L118.06 212.138L117.221 206.695L121.683 203.413L121.302 198.744L125.61 196.251L142.067 165.639Z" fill="#2F2E41"/>
<path id="Vector_13" d="M128.274 71.8896L134.8 76.8534L142.671 79.2692C142.671 79.2692 145.925 124.986 148.857 127.914C151.789 130.843 149.145 130.922 149.734 134.726C150.323 138.53 151.755 146.329 151.755 146.329C131.964 156.792 114.903 157.073 101.198 144.829C101.022 144.071 101.111 143.277 101.45 142.577C101.789 141.877 102.357 141.313 103.06 140.98C105.611 139.628 100.709 133.319 102.793 132.264C104.878 131.209 101.946 122.057 101.946 122.057L103.869 102.964V99.7474L106.058 81.2354L112.492 78.8883L115.063 72.7028L128.274 71.8896Z" fill="#6279E9"/>
<path id="Vector_14" d="M121.593 69.1269C128.722 69.1269 134.502 63.3539 134.502 56.2326C134.502 49.1112 128.722 43.3383 121.593 43.3383C114.463 43.3383 108.683 49.1112 108.683 56.2326C108.683 63.3539 114.463 69.1269 121.593 69.1269Z" fill="#FFB6B6"/>
<path id="Vector_15" d="M111.078 45.1552C112.139 42.0703 117.424 39.9305 125.992 39.633C134.56 39.3355 136.733 49.4202 136.733 49.4202C142.452 54.0545 130.625 66.4616 130.053 66.0148L130.31 63.6837C130.736 59.8226 132.546 56.81 130.244 52.786L128.034 52.8114L123.841 53.6167C123.58 53.6669 123.309 53.6298 123.071 53.5112C122.833 53.3926 122.64 53.1991 122.523 52.9604C122.406 52.7217 122.37 52.4512 122.422 52.1905C122.474 51.9298 122.611 51.6933 122.81 51.5177L122.849 51.4839L122.753 51.3366C121.276 52.0135 119.754 52.6411 118.14 52.7359C116.323 52.8425 114.337 52.1204 113.467 50.5239C113.234 50.0851 113.092 49.6043 113.049 49.1098C110.599 50.0874 109.479 53.1039 109.479 53.1039C109.479 53.1039 110.016 48.2402 111.078 45.1552Z" fill="#2F2E41"/>
<path id="Vector_16" d="M145.943 217.491L140.775 221.862L121.436 204.031L129.064 197.58L145.943 217.491Z" fill="#FFB6B6"/>
<path id="Vector_17" d="M151.503 221.38L134.839 235.474L134.661 235.263C133.204 233.545 132.49 231.32 132.677 229.076C132.863 226.832 133.934 224.754 135.654 223.299L135.654 223.299L136.743 218.418L144.378 215.921L145.832 214.691L151.503 221.38Z" fill="#2F2E41"/>
<path id="Vector_18" d="M114.003 168.187L118.275 158.934C118.227 150.495 111.154 143.64 102.72 144.169C98.024 144.464 93.6262 147.087 91.8092 154.885C87.137 174.938 132.981 216.666 132.981 216.666L141.405 211.466L141.793 205.973L137.076 203.069L137.071 198.384L132.573 196.253L114.003 168.187Z" fill="#2F2E41"/>
<path id="Vector_19" d="M110.682 150.362V118.219C110.682 117.568 110.941 116.945 111.402 116.485C111.863 116.025 112.487 115.766 113.138 115.765H137.442C138.093 115.766 138.718 116.025 139.178 116.485C139.639 116.945 139.898 117.568 139.899 118.219V150.362C139.898 151.012 139.639 151.636 139.178 152.096C138.718 152.556 138.093 152.815 137.442 152.816H113.138C112.487 152.815 111.863 152.556 111.402 152.096C110.941 151.636 110.682 151.012 110.682 150.362Z" fill="#E6E6E6"/>
<path id="Vector_20" d="M112.546 140.653V119.989C112.547 119.38 112.789 118.796 113.221 118.365C113.652 117.934 114.237 117.692 114.847 117.691H135.734C136.344 117.692 136.928 117.934 137.36 118.365C137.791 118.796 138.034 119.38 138.035 119.989V148.592C138.034 149.201 137.791 149.785 137.36 150.216C136.928 150.647 136.344 150.889 135.734 150.89H122.795C120.077 150.887 117.472 149.807 115.551 147.888C113.63 145.969 112.549 143.367 112.546 140.653V140.653Z" fill="white"/>
<path id="Vector_21" d="M115.928 125.755C115.928 125.159 116.165 124.589 116.587 124.168C117.008 123.747 117.58 123.51 118.176 123.509H132.665C133.262 123.509 133.833 123.746 134.255 124.167C134.677 124.588 134.914 125.159 134.914 125.755C134.914 126.35 134.677 126.922 134.255 127.343C133.833 127.764 133.262 128 132.665 128H118.176C117.58 128 117.008 127.763 116.587 127.342C116.165 126.921 115.928 126.35 115.928 125.755V125.755Z" fill="#E6E6E6"/>
<path id="Vector_22" d="M115.928 132.741C115.928 132.146 116.165 131.575 116.587 131.154C117.008 130.733 117.58 130.496 118.176 130.496H132.665C133.262 130.496 133.833 130.732 134.255 131.153C134.677 131.575 134.914 132.146 134.914 132.741C134.914 133.337 134.677 133.908 134.255 134.329C133.833 134.75 133.262 134.987 132.665 134.987H118.176C117.58 134.986 117.008 134.75 116.587 134.329C116.165 133.908 115.928 133.337 115.928 132.741V132.741Z" fill="#E6E6E6"/>
<path id="Vector_23" d="M115.928 139.728C115.928 139.132 116.165 138.562 116.587 138.141C117.008 137.72 117.58 137.483 118.176 137.482H132.665C133.262 137.482 133.833 137.719 134.255 138.14C134.677 138.561 134.914 139.132 134.914 139.728C134.914 140.323 134.677 140.895 134.255 141.316C133.833 141.737 133.262 141.974 132.665 141.974H118.176C117.58 141.973 117.008 141.736 116.587 141.315C116.165 140.894 115.928 140.323 115.928 139.728V139.728Z" fill="#E6E6E6"/>
<path id="Vector_24" d="M132.362 153.144C132.333 152.318 132.485 151.496 132.809 150.736C133.132 149.975 133.618 149.295 134.233 148.742C134.848 148.19 135.577 147.779 136.368 147.538C137.159 147.297 137.994 147.233 138.812 147.349L148.01 129.492L153.135 138.586L143.615 154.149C143.328 155.51 142.551 156.719 141.432 157.546C140.313 158.374 138.928 158.762 137.541 158.638C136.154 158.514 134.861 157.887 133.907 156.874C132.952 155.861 132.403 154.534 132.362 153.144H132.362Z" fill="#FFB6B6"/>
<path id="Vector_25" d="M147.852 148.775L167.58 118.235L167.515 118.095C167.441 117.934 162.973 108.297 158.645 99.4697C157.978 98.1103 157.315 96.7702 156.671 95.4869C156.394 94.933 156.12 94.3907 155.851 93.86C154.032 90.28 152.444 87.321 151.496 85.9154C149.399 82.7374 146.276 80.3716 142.647 79.2106L142.556 79.1871L142.469 79.2234C140.693 79.9716 139.226 81.3016 138.31 82.9943C137.393 84.6869 137.081 86.641 137.425 88.5345C139.136 97.6675 142.95 106.278 148.563 113.687L151.762 117.898L140.647 142.033L147.852 148.775Z" fill="#6279E9"/>
</g>
</g>
</svg>
