<svg width="866" height="577" viewBox="0 0 866 577" fill="none" xmlns="http://www.w3.org/2000/svg">
<g id="undraw_folder_files_re_2cbm 1" clip-path="url(#clip0_2_2)">
<g id="hand">
<path id="Vector" d="M549.817 320.137C552.847 319.504 555.506 317.705 557.222 315.129C558.938 312.552 559.573 309.405 558.99 306.365C558.859 305.693 558.669 305.034 558.422 304.396L589.893 277.267L569.318 271.446L542.587 298.101C539.779 299.44 537.611 301.831 536.552 304.756C535.492 307.681 535.626 310.905 536.925 313.732C538.029 316.104 539.906 318.03 542.248 319.194C544.591 320.358 547.26 320.69 549.817 320.137Z" fill="#FFB6B6"/>
<path id="Vector_2" d="M548.756 288.845L564.256 301.345L648.756 235.845L643.756 121.845C639.004 125.647 635.053 130.353 632.131 135.692C629.209 141.03 627.375 146.895 626.734 152.948L612.256 217.345L548.756 288.845Z" fill="#BF2934"/>
</g>
<g id="man">
<path id="Vector_3" d="M714.057 561.388L699.956 561.387L693.248 507L714.059 507.001L714.057 561.388Z" fill="#FFB6B6"/>
<path id="Vector_4" d="M717.652 575.056L672.187 575.054V574.479C672.187 569.786 674.052 565.285 677.37 561.966C680.689 558.648 685.19 556.783 689.883 556.783H689.884L698.189 550.482L713.684 556.784L717.653 556.784L717.652 575.056Z" fill="#2F2E41"/>
<path id="Vector_5" d="M648.548 561.388L634.448 561.387L627.74 507L648.551 507.001L648.548 561.388Z" fill="#FFB6B6"/>
<path id="Vector_6" d="M652.144 575.056L606.679 575.054V574.479C606.679 569.786 608.544 565.285 611.862 561.966C615.181 558.648 619.682 556.783 624.375 556.783H624.376L632.681 550.482L648.176 556.784L652.145 556.784L652.144 575.056Z" fill="#2F2E41"/>
<path id="Vector_7" d="M642.445 264.048L734.16 266.341C751.579 275.802 751.844 296.279 746.136 320.591C746.136 320.591 748.063 335.041 744.21 338.894C740.356 342.748 738.43 342.748 740.356 349.491C742.283 356.235 732.103 367.249 733.34 368.485C734.576 369.722 737.466 376.465 737.466 376.465L727.833 431.376C727.833 431.376 721.089 526.748 719.162 528.675C717.236 530.602 715.309 528.675 717.236 533.492C719.162 538.309 721.089 536.382 719.162 538.309C717.456 540.149 715.848 542.078 714.346 544.089H691.055C691.055 544.089 689.299 534.455 689.299 533.492C689.299 532.529 687.372 526.748 687.372 525.785C687.372 524.822 689.075 523.119 689.075 523.119C689.663 521.16 690.061 519.15 690.262 517.115C690.262 515.188 696.042 441.01 696.042 441.01L684.482 344.675L656.544 439.083C656.544 439.083 656.544 521.932 654.618 523.858C652.691 525.785 652.691 524.822 653.654 528.675C654.618 532.528 658.471 531.565 655.581 534.455C652.691 537.345 651.728 532.528 652.691 537.345L653.654 542.162L624.754 542.575C624.754 542.575 620.9 534.455 622.827 531.565C624.754 528.675 624.638 529.464 622.288 524.734C619.937 520.005 618.974 519.042 619.937 518.078C620.9 517.115 620.9 511.991 620.9 511.991L625.717 419.816C625.717 419.816 626.681 322.517 626.681 319.627C626.753 318.14 626.479 316.657 625.88 315.293V311.371L629.571 297.47L642.445 264.048Z" fill="#1A2E35"/>
<g id="Vector_8" filter="url(#filter0_d_2_2)">
<path d="M628.756 292.845C658.667 296.668 686.225 285.086 712.257 276.345C724.008 272.399 735.847 276.518 746.756 269.845C742.039 223.378 746.619 171.037 756.64 115.259C757.212 112.101 756.615 108.843 754.962 106.093C753.308 103.343 750.711 101.288 747.654 100.312L715.363 91.048L705.421 80.0804L679.744 86.5986L670.756 102.845L639.869 123.715C638.066 124.932 636.653 126.645 635.8 128.646C634.947 130.647 634.691 132.852 635.061 134.996C644.341 187.453 642.19 241.295 628.756 292.845Z" fill="#BF2934"/>
</g>
<path id="Vector_9" d="M724.217 307.227C726.959 305.791 729.027 303.334 729.975 300.387C730.923 297.441 730.675 294.239 729.284 291.474C728.975 290.863 728.612 290.281 728.201 289.735L751.075 255.048L729.693 255.062L711.249 287.999C708.913 290.054 707.479 292.945 707.258 296.048C707.037 299.151 708.046 302.217 710.067 304.582C711.776 306.563 714.107 307.904 716.678 308.384C719.25 308.865 721.908 308.457 724.217 307.227L724.217 307.227Z" fill="#FFB6B6"/>
<path id="Vector_10" d="M717.756 274.845L731.756 292.845L780.756 219.845L776.518 145.682C775.979 136.236 773.059 127.08 768.03 119.066C763.001 111.052 756.027 104.44 747.756 99.845V99.845L748.756 213.845L717.756 274.845Z" fill="#BF2934"/>
<path id="Vector_11" d="M682.576 75.8372C699.882 75.8372 713.911 61.8079 713.911 44.5018C713.911 27.1957 699.882 13.1663 682.576 13.1663C665.27 13.1663 651.24 27.1957 651.24 44.5018C651.24 61.8079 665.27 75.8372 682.576 75.8372Z" fill="#FFB6B6"/>
<path id="Vector_12" d="M662.61 26.1117C663.823 26.1212 665.029 26.2796 666.203 26.5832C668.517 27.1396 670.867 27.5337 673.236 27.7626C680.491 28.4451 687.307 31.5388 692.597 36.5497C697.886 41.5605 701.344 48.1994 702.418 55.406C704.239 53.8185 708.382 50.8983 711.778 53.6123C711.83 53.6554 711.86 53.6775 711.979 53.6209C714.235 52.5511 718.238 39.3819 718.36 27.7866C718.424 21.6323 717.455 13.7735 712.477 11.2848L712.215 11.1537L712.146 10.8687C711.814 9.48434 708.098 7.12122 701.641 5.28194C689.906 1.93947 672.414 -4.57172 662.564 5.01063C661.818 8.24107 659.393 15.1542 656.943 15.9378C654.231 16.8051 651.888 17.5537 651.518 20.8814C651.21 25.6169 651.232 30.3682 651.585 35.1007C652.505 32.2048 654.309 29.6702 656.744 27.8538C658.476 26.688 660.523 26.0801 662.61 26.1117V26.1117Z" fill="#2F2E41"/>
</g>
<path id="Vector_13" d="M865.67 575.253C865.67 575.41 865.64 575.565 865.58 575.709C865.521 575.854 865.433 575.985 865.322 576.096C865.212 576.207 865.081 576.294 864.936 576.354C864.791 576.413 864.636 576.444 864.48 576.443H1.19C0.874395 576.443 0.571725 576.318 0.348557 576.095C0.125388 575.872 0 575.569 0 575.253C0 574.938 0.125388 574.635 0.348557 574.412C0.571725 574.189 0.874395 574.063 1.19 574.063H864.48C864.636 574.063 864.791 574.093 864.936 574.153C865.081 574.213 865.212 574.3 865.322 574.411C865.433 574.522 865.521 574.653 865.58 574.798C865.64 574.942 865.67 575.097 865.67 575.253Z" fill="#CCCCCC"/>
<g id="doc3">
<path id="Vector_14" d="M336.135 124.294L218.509 150.758C215.358 151.471 212.618 153.404 210.89 156.135C209.163 158.865 208.589 162.17 209.294 165.323L241.549 308.687L379.751 277.595C380.887 277.343 381.926 276.769 382.744 275.943L350.7 133.51C349.987 130.358 348.053 127.618 345.323 125.89C342.592 124.163 339.288 123.589 336.135 124.294V124.294Z" fill="#989494"/>
<path id="Vector_15" d="M293.408 144.035L228.946 158.538C226.076 159.186 223.581 160.947 222.007 163.433C220.433 165.919 219.91 168.927 220.552 171.799L250.876 306.589L373.62 278.974L351.536 180.812C348.691 168.235 340.974 157.299 330.076 150.405C319.179 143.51 305.992 141.219 293.408 144.035V144.035Z" fill="white"/>
<path id="Vector_16" d="M350.016 271.708L269.095 289.913C268.748 289.991 268.419 290.136 268.129 290.34C267.838 290.544 267.59 290.804 267.4 291.104C267.209 291.405 267.08 291.739 267.019 292.09C266.959 292.44 266.967 292.799 267.045 293.145C267.123 293.492 267.269 293.82 267.474 294.111C267.679 294.401 267.939 294.648 268.24 294.838C268.54 295.028 268.875 295.156 269.226 295.216C269.576 295.277 269.935 295.267 270.281 295.188L351.203 276.983C351.55 276.906 351.879 276.761 352.17 276.556C352.461 276.352 352.709 276.092 352.899 275.792C353.09 275.492 353.219 275.157 353.28 274.806C353.341 274.456 353.332 274.097 353.254 273.75C353.176 273.403 353.03 273.075 352.825 272.785C352.62 272.494 352.36 272.247 352.059 272.057C351.758 271.867 351.423 271.739 351.072 271.679C350.722 271.619 350.363 271.629 350.016 271.708Z" fill="#E4E4E4"/>
<path id="Vector_17" d="M347.669 261.276L266.748 279.482C266.047 279.639 265.439 280.069 265.055 280.675C264.671 281.282 264.544 282.016 264.702 282.716C264.859 283.416 265.288 284.025 265.895 284.409C266.501 284.793 267.235 284.92 267.936 284.762L348.857 266.557C349.204 266.479 349.532 266.333 349.822 266.128C350.113 265.924 350.36 265.664 350.55 265.363C350.74 265.063 350.869 264.728 350.93 264.378C350.99 264.028 350.981 263.669 350.903 263.322C350.825 262.976 350.68 262.648 350.475 262.357C350.27 262.067 350.01 261.82 349.71 261.63C349.41 261.44 349.075 261.311 348.725 261.25C348.375 261.189 348.016 261.198 347.669 261.276H347.669Z" fill="#E4E4E4"/>
<path id="Vector_18" d="M299.48 261.164L264.402 269.056C263.703 269.213 263.094 269.642 262.711 270.248C262.328 270.854 262.201 271.587 262.358 272.287C262.515 272.986 262.944 273.595 263.55 273.978C264.156 274.361 264.889 274.488 265.589 274.331L300.667 266.439C301.014 266.362 301.343 266.217 301.634 266.013C301.925 265.808 302.173 265.549 302.363 265.248C302.554 264.948 302.683 264.613 302.744 264.263C302.805 263.912 302.796 263.554 302.718 263.207C302.64 262.86 302.494 262.531 302.289 262.241C302.084 261.95 301.824 261.703 301.523 261.513C301.222 261.324 300.887 261.195 300.536 261.135C300.186 261.075 299.827 261.085 299.48 261.164V261.164Z" fill="#E4E4E4"/>
<path id="Vector_19" d="M340.409 229.008L259.488 247.213C259.141 247.292 258.813 247.437 258.523 247.642C258.232 247.847 257.985 248.106 257.795 248.407C257.411 249.013 257.284 249.747 257.442 250.448C257.599 251.148 258.029 251.757 258.635 252.141C259.242 252.524 259.976 252.651 260.676 252.494L341.597 234.288C341.944 234.21 342.272 234.065 342.563 233.86C342.853 233.655 343.1 233.395 343.29 233.095C343.48 232.795 343.609 232.46 343.67 232.11C343.731 231.759 343.722 231.401 343.644 231.054C343.566 230.707 343.42 230.379 343.215 230.089C343.011 229.798 342.751 229.551 342.45 229.361C342.15 229.171 341.815 229.042 341.465 228.982C341.115 228.921 340.756 228.93 340.409 229.008V229.008Z" fill="#E4E4E4"/>
<path id="Vector_20" d="M338.064 218.582L257.142 236.787C256.795 236.865 256.467 237.01 256.176 237.214C255.885 237.419 255.638 237.678 255.447 237.978C255.257 238.279 255.128 238.613 255.067 238.964C255.006 239.314 255.015 239.673 255.093 240.019C255.171 240.366 255.317 240.694 255.522 240.985C255.727 241.275 255.987 241.522 256.287 241.712C256.588 241.902 256.923 242.03 257.273 242.09C257.624 242.151 257.982 242.141 258.329 242.062L339.251 223.857C339.597 223.779 339.925 223.634 340.216 223.429C340.506 223.225 340.753 222.965 340.944 222.665C341.134 222.365 341.263 222.03 341.323 221.68C341.384 221.33 341.375 220.972 341.297 220.625C341.219 220.279 341.074 219.951 340.869 219.661C340.664 219.37 340.404 219.123 340.104 218.933C339.804 218.744 339.469 218.615 339.119 218.555C338.769 218.494 338.41 218.503 338.064 218.582V218.582Z" fill="#E4E4E4"/>
<path id="Vector_21" d="M289.874 218.464L254.795 226.356C254.449 226.434 254.121 226.58 253.83 226.784C253.54 226.989 253.293 227.249 253.103 227.549C252.913 227.85 252.784 228.184 252.723 228.535C252.662 228.885 252.671 229.243 252.749 229.59C252.827 229.937 252.973 230.265 253.178 230.555C253.382 230.846 253.642 231.093 253.943 231.283C254.243 231.473 254.578 231.602 254.928 231.663C255.278 231.723 255.637 231.714 255.984 231.636L291.062 223.744C291.408 223.666 291.736 223.521 292.027 223.316C292.317 223.111 292.565 222.852 292.755 222.551C292.945 222.251 293.074 221.916 293.134 221.566C293.195 221.216 293.186 220.857 293.108 220.51C293.03 220.164 292.884 219.836 292.68 219.545C292.475 219.255 292.215 219.007 291.914 218.817C291.614 218.627 291.279 218.498 290.929 218.438C290.579 218.377 290.22 218.386 289.874 218.464V218.464Z" fill="#E4E4E4"/>
<path id="Vector_22" d="M330.803 186.308L249.881 204.514C249.181 204.671 248.572 205.1 248.189 205.707C247.805 206.313 247.678 207.048 247.835 207.748C247.993 208.448 248.422 209.057 249.029 209.441C249.635 209.824 250.369 209.951 251.069 209.794L331.991 191.588C332.338 191.51 332.666 191.365 332.956 191.16C333.246 190.955 333.494 190.695 333.684 190.395C333.874 190.095 334.003 189.76 334.063 189.41C334.124 189.059 334.115 188.701 334.037 188.354C333.959 188.007 333.813 187.679 333.609 187.389C333.404 187.099 333.144 186.851 332.844 186.661C332.543 186.471 332.209 186.342 331.858 186.282C331.508 186.221 331.15 186.23 330.803 186.308V186.308Z" fill="#E6E6E6"/>
<path id="Vector_23" d="M328.457 175.882L247.536 194.088C247.189 194.166 246.861 194.311 246.571 194.516C246.28 194.721 246.033 194.981 245.843 195.281C245.459 195.887 245.332 196.622 245.49 197.322C245.647 198.022 246.076 198.631 246.683 199.015C247.289 199.398 248.024 199.525 248.724 199.368L329.645 181.162C329.992 181.084 330.32 180.939 330.61 180.734C330.901 180.529 331.148 180.269 331.338 179.969C331.528 179.669 331.657 179.334 331.718 178.984C331.778 178.633 331.769 178.275 331.691 177.928C331.613 177.581 331.468 177.253 331.263 176.963C331.058 176.672 330.798 176.425 330.498 176.235C330.198 176.045 329.863 175.916 329.513 175.856C329.163 175.795 328.804 175.804 328.457 175.882V175.882Z" fill="#E6E6E6"/>
<path id="Vector_24" d="M280.267 175.764L245.189 183.656C244.489 183.814 243.88 184.243 243.496 184.849C243.112 185.456 242.985 186.19 243.143 186.89C243.3 187.591 243.73 188.2 244.336 188.583C244.943 188.967 245.677 189.094 246.377 188.937L281.455 181.045C281.802 180.967 282.13 180.821 282.42 180.616C282.711 180.412 282.958 180.152 283.148 179.851C283.338 179.551 283.467 179.216 283.528 178.866C283.588 178.516 283.579 178.157 283.501 177.81C283.423 177.464 283.278 177.136 283.073 176.845C282.868 176.555 282.608 176.308 282.308 176.118C282.008 175.928 281.673 175.799 281.323 175.738C280.972 175.677 280.614 175.686 280.267 175.764Z" fill="#E6E6E6"/>
</g>
<path id="Vector_25" d="M122.614 267.463C121.847 267.464 121.112 267.769 120.57 268.311C120.027 268.853 119.723 269.588 119.722 270.355V569.402C119.722 570.169 120.027 570.904 120.57 571.447C121.112 571.989 121.847 572.294 122.614 572.295H497.56C498.326 572.294 499.061 571.989 499.603 571.447C500.146 570.904 500.45 570.169 500.451 569.402V318.358C500.45 317.592 500.146 316.857 499.603 316.314C499.061 315.772 498.326 315.467 497.56 315.466H282.365C280.181 315.468 278.074 314.654 276.458 313.184L228.08 269.226C226.832 268.09 225.204 267.462 223.517 267.463H122.614Z" fill="#3F3D56"/>
<g id="doc1">
<path id="Vector_26" d="M565.98 188.099L365.217 101.788C359.834 99.4811 353.756 99.4036 348.316 101.572C342.875 103.741 338.518 107.98 336.198 113.357L231 358.052L466.885 459.463C468.819 460.302 470.954 460.566 473.034 460.224L577.549 217.118C579.856 211.735 579.934 205.656 577.765 200.216C575.596 194.776 571.358 190.419 565.98 188.099Z" fill="#989494"/>
<path id="Vector_27" d="M482.278 171.609L372.254 124.308C367.353 122.207 361.818 122.135 356.864 124.109C351.91 126.083 347.941 129.941 345.828 134.837L246.921 364.897L456.421 454.964L528.45 287.422C537.657 265.938 537.966 241.68 529.31 219.968C520.654 198.257 503.74 180.866 482.278 171.609Z" fill="white"/>
<path id="Vector_28" d="M429.513 419.188L291.396 359.809C290.805 359.554 290.169 359.418 289.525 359.408C288.881 359.399 288.241 359.517 287.643 359.755C287.044 359.993 286.499 360.347 286.037 360.796C285.575 361.245 285.207 361.781 284.952 362.373C284.698 362.964 284.562 363.601 284.554 364.245C284.546 364.889 284.665 365.528 284.904 366.126C285.143 366.724 285.497 367.27 285.947 367.731C286.397 368.192 286.934 368.559 287.526 368.813L425.643 428.191C426.234 428.447 426.87 428.583 427.514 428.592C428.158 428.602 428.798 428.484 429.396 428.246C429.995 428.008 430.541 427.654 431.002 427.205C431.464 426.756 431.833 426.22 432.087 425.628C432.341 425.036 432.477 424.4 432.485 423.756C432.493 423.112 432.375 422.473 432.135 421.875C431.896 421.276 431.542 420.731 431.092 420.27C430.642 419.809 430.106 419.442 429.513 419.188V419.188Z" fill="#E4E4E4"/>
<path id="Vector_29" d="M437.168 401.384L299.051 342.005C297.856 341.492 296.506 341.474 295.298 341.956C294.09 342.438 293.123 343.38 292.609 344.575C292.095 345.77 292.077 347.119 292.559 348.328C293.04 349.536 293.982 350.503 295.176 351.018L433.293 410.396C433.885 410.651 434.521 410.786 435.165 410.795C435.809 410.803 436.449 410.685 437.047 410.446C437.645 410.208 438.191 409.854 438.652 409.404C439.114 408.955 439.482 408.419 439.737 407.827C439.991 407.236 440.126 406.599 440.135 405.955C440.144 405.311 440.025 404.672 439.787 404.073C439.548 403.475 439.194 402.93 438.745 402.468C438.295 402.007 437.76 401.638 437.168 401.384H437.168Z" fill="#E4E4E4"/>
<path id="Vector_30" d="M366.573 349.95L306.701 324.21C306.11 323.955 305.474 323.819 304.83 323.81C304.187 323.801 303.547 323.919 302.949 324.157C302.351 324.396 301.806 324.749 301.344 325.198C300.883 325.647 300.515 326.183 300.26 326.775C300.006 327.366 299.871 328.002 299.862 328.646C299.854 329.289 299.972 329.929 300.211 330.526C300.45 331.124 300.804 331.669 301.253 332.13C301.703 332.591 302.239 332.959 302.831 333.213L362.702 358.953C363.293 359.208 363.929 359.343 364.573 359.352C365.217 359.361 365.856 359.244 366.454 359.005C367.052 358.767 367.597 358.413 368.059 357.964C368.52 357.515 368.889 356.98 369.143 356.388C369.397 355.797 369.532 355.161 369.541 354.517C369.549 353.873 369.431 353.234 369.192 352.636C368.953 352.038 368.599 351.493 368.15 351.032C367.7 350.571 367.164 350.203 366.573 349.95V349.95Z" fill="#E4E4E4"/>
<path id="Vector_31" d="M460.846 346.308L322.729 286.929C321.534 286.417 320.185 286.4 318.977 286.882C317.77 287.364 316.804 288.306 316.29 289.5C315.777 290.695 315.758 292.044 316.239 293.252C316.72 294.459 317.66 295.427 318.854 295.942L456.971 355.32C457.563 355.576 458.2 355.712 458.844 355.721C459.489 355.731 460.129 355.613 460.728 355.374C461.327 355.136 461.873 354.782 462.335 354.332C462.798 353.883 463.166 353.346 463.421 352.754C463.676 352.162 463.811 351.525 463.819 350.881C463.828 350.236 463.709 349.596 463.47 348.997C463.231 348.398 462.876 347.853 462.425 347.391C461.975 346.93 461.438 346.562 460.846 346.308V346.308Z" fill="#E4E4E4"/>
<path id="Vector_32" d="M468.496 328.513L330.379 269.134C329.788 268.879 329.152 268.742 328.508 268.733C327.864 268.724 327.224 268.841 326.626 269.079C326.027 269.318 325.481 269.671 325.02 270.12C324.558 270.57 324.189 271.105 323.935 271.697C323.681 272.289 323.545 272.925 323.537 273.569C323.529 274.213 323.647 274.853 323.886 275.451C324.125 276.049 324.48 276.594 324.93 277.055C325.38 277.516 325.916 277.884 326.509 278.137L464.626 337.516C465.217 337.771 465.853 337.908 466.497 337.917C467.141 337.926 467.781 337.809 468.379 337.571C468.978 337.332 469.523 336.979 469.985 336.53C470.447 336.08 470.815 335.545 471.07 334.953C471.324 334.361 471.459 333.725 471.468 333.081C471.476 332.437 471.357 331.797 471.118 331.199C470.879 330.601 470.525 330.056 470.075 329.595C469.625 329.134 469.088 328.766 468.496 328.513V328.513Z" fill="#E4E4E4"/>
<path id="Vector_33" d="M397.905 277.069L338.034 251.33C336.839 250.817 335.489 250.799 334.281 251.281C333.073 251.763 332.106 252.705 331.592 253.899C331.078 255.094 331.06 256.444 331.542 257.652C332.023 258.86 332.964 259.828 334.159 260.342L394.03 286.082C394.622 286.337 395.259 286.472 395.903 286.481C396.547 286.49 397.187 286.371 397.785 286.133C398.384 285.895 398.929 285.54 399.391 285.091C399.853 284.642 400.221 284.106 400.476 283.514C400.73 282.922 400.866 282.286 400.874 281.641C400.883 280.997 400.764 280.357 400.525 279.759C400.287 279.161 399.932 278.615 399.483 278.154C399.033 277.692 398.497 277.324 397.905 277.069V277.069Z" fill="#E4E4E4"/>
<path id="Vector_34" d="M492.178 273.428L354.061 214.049C352.866 213.537 351.517 213.521 350.311 214.003C349.104 214.485 348.137 215.427 347.624 216.621C347.111 217.815 347.092 219.164 347.573 220.371C348.053 221.579 348.993 222.546 350.187 223.061L488.304 282.44C488.895 282.695 489.532 282.83 490.176 282.839C490.82 282.848 491.46 282.73 492.058 282.491C492.657 282.253 493.202 281.899 493.664 281.449C494.126 281 494.494 280.464 494.749 279.872C495.003 279.28 495.139 278.644 495.147 278C495.156 277.355 495.037 276.716 494.799 276.117C494.56 275.519 494.205 274.973 493.756 274.512C493.306 274.05 492.77 273.682 492.178 273.428V273.428Z" fill="#FE4E59"/>
<path id="Vector_35" d="M499.829 255.633L361.712 196.254C360.517 195.742 359.167 195.725 357.96 196.207C356.753 196.689 355.787 197.631 355.273 198.825C354.76 200.019 354.741 201.368 355.222 202.576C355.703 203.784 356.643 204.751 357.837 205.266L495.954 264.645C496.546 264.902 497.183 265.039 497.828 265.049C498.474 265.059 499.115 264.942 499.714 264.703C500.314 264.465 500.861 264.111 501.324 263.661C501.787 263.211 502.156 262.675 502.411 262.082C502.666 261.489 502.801 260.852 502.809 260.206C502.817 259.561 502.698 258.92 502.458 258.321C502.218 257.722 501.863 257.176 501.411 256.715C500.96 256.253 500.422 255.886 499.829 255.633V255.633Z" fill="#FE4E59"/>
<path id="Vector_36" d="M429.237 204.189L369.366 178.449C368.171 177.936 366.821 177.919 365.613 178.401C364.405 178.882 363.438 179.824 362.924 181.019C362.411 182.214 362.392 183.564 362.874 184.772C363.355 185.98 364.297 186.948 365.491 187.462L425.363 213.202C425.955 213.456 426.591 213.592 427.235 213.601C427.879 213.609 428.519 213.491 429.118 213.253C429.716 213.014 430.262 212.66 430.723 212.211C431.185 211.761 431.554 211.225 431.808 210.633C432.063 210.041 432.198 209.405 432.207 208.761C432.215 208.117 432.097 207.477 431.858 206.879C431.619 206.28 431.265 205.735 430.815 205.273C430.366 204.812 429.829 204.443 429.237 204.189V204.189Z" fill="#FE4E59"/>
</g>
<g id="doc2">
<path id="Vector_37" d="M284.277 278.122L166.652 304.586C163.5 305.299 160.76 307.232 159.033 309.963C157.305 312.693 156.731 315.998 157.437 319.151L189.691 462.515L327.894 431.423C329.029 431.171 330.068 430.597 330.887 429.771L298.842 287.337C298.129 284.186 296.195 281.446 293.465 279.718C290.734 277.991 287.43 277.417 284.277 278.122Z" fill="#989494"/>
<path id="Vector_38" d="M241.55 297.863L177.088 312.366C174.218 313.014 171.723 314.775 170.149 317.261C168.576 319.747 168.052 322.755 168.694 325.627L199.019 460.417L321.763 432.802L299.678 334.64C296.834 322.063 289.116 311.127 278.218 304.232C267.321 297.338 254.134 295.047 241.55 297.863V297.863Z" fill="white"/>
<path id="Vector_39" d="M298.158 425.536L217.237 443.741C216.89 443.819 216.562 443.964 216.271 444.168C215.98 444.372 215.732 444.632 215.542 444.932C215.352 445.233 215.222 445.567 215.162 445.917C215.101 446.268 215.11 446.626 215.188 446.973C215.266 447.32 215.411 447.648 215.616 447.938C215.821 448.229 216.081 448.476 216.382 448.666C216.683 448.856 217.018 448.984 217.368 449.044C217.718 449.104 218.077 449.095 218.424 449.016L299.345 430.811C299.692 430.733 300.021 430.589 300.312 430.384C300.603 430.18 300.851 429.92 301.042 429.62C301.232 429.32 301.362 428.985 301.422 428.634C301.483 428.284 301.474 427.925 301.396 427.578C301.318 427.231 301.173 426.903 300.968 426.612C300.762 426.322 300.502 426.075 300.201 425.885C299.9 425.695 299.565 425.567 299.215 425.507C298.864 425.447 298.505 425.457 298.158 425.536V425.536Z" fill="#E4E4E4"/>
<path id="Vector_40" d="M295.811 415.104L214.89 433.31C214.19 433.467 213.581 433.897 213.197 434.503C212.813 435.11 212.686 435.844 212.844 436.544C213.001 437.244 213.431 437.853 214.037 438.237C214.644 438.621 215.378 438.748 216.078 438.59L296.999 420.385C297.7 420.227 298.309 419.798 298.692 419.191C299.076 418.585 299.203 417.851 299.046 417.15C298.888 416.45 298.459 415.841 297.852 415.458C297.246 415.074 296.512 414.947 295.811 415.104V415.104Z" fill="#E4E4E4"/>
<path id="Vector_41" d="M247.623 414.992L212.544 422.884C212.198 422.962 211.87 423.107 211.58 423.312C211.29 423.516 211.043 423.776 210.853 424.076C210.663 424.376 210.535 424.71 210.474 425.06C210.413 425.41 210.422 425.768 210.5 426.115C210.578 426.461 210.724 426.789 210.928 427.079C211.133 427.369 211.392 427.616 211.692 427.806C211.992 427.996 212.327 428.125 212.677 428.185C213.026 428.246 213.385 428.237 213.731 428.159L248.809 420.267C249.156 420.19 249.485 420.045 249.776 419.841C250.067 419.636 250.315 419.377 250.506 419.076C250.696 418.776 250.826 418.441 250.887 418.091C250.947 417.74 250.939 417.381 250.861 417.034C250.783 416.688 250.637 416.359 250.432 416.069C250.227 415.778 249.966 415.531 249.665 415.341C249.365 415.152 249.029 415.023 248.679 414.963C248.328 414.903 247.969 414.913 247.623 414.992V414.992Z" fill="#E4E4E4"/>
<path id="Vector_42" d="M288.552 382.836L207.63 401.041C207.284 401.119 206.956 401.265 206.665 401.47C206.375 401.674 206.127 401.934 205.937 402.235C205.554 402.841 205.427 403.575 205.584 404.276C205.742 404.976 206.171 405.585 206.777 405.968C207.384 406.352 208.118 406.479 208.818 406.322L289.74 388.116C290.44 387.958 291.049 387.529 291.433 386.923C291.816 386.316 291.943 385.582 291.786 384.882C291.628 384.182 291.199 383.573 290.593 383.189C289.986 382.805 289.252 382.678 288.552 382.836V382.836Z" fill="#E4E4E4"/>
<path id="Vector_43" d="M286.206 372.41L205.285 390.615C204.938 390.693 204.609 390.838 204.319 391.042C204.028 391.246 203.78 391.506 203.59 391.806C203.399 392.107 203.27 392.441 203.209 392.792C203.149 393.142 203.157 393.501 203.236 393.847C203.314 394.194 203.459 394.522 203.664 394.813C203.869 395.103 204.129 395.35 204.43 395.54C204.73 395.73 205.065 395.858 205.416 395.918C205.766 395.978 206.125 395.969 206.471 395.89L287.393 377.685C287.74 377.607 288.067 377.462 288.358 377.257C288.648 377.053 288.896 376.793 289.086 376.493C289.276 376.193 289.405 375.858 289.466 375.508C289.526 375.158 289.517 374.8 289.439 374.453C289.361 374.107 289.216 373.779 289.011 373.489C288.807 373.198 288.547 372.951 288.246 372.761C287.946 372.572 287.611 372.443 287.261 372.383C286.911 372.322 286.553 372.331 286.206 372.41V372.41Z" fill="#E4E4E4"/>
<path id="Vector_44" d="M238.016 372.292L202.938 380.184C202.238 380.342 201.629 380.771 201.245 381.377C200.861 381.984 200.734 382.718 200.892 383.418C201.049 384.118 201.478 384.727 202.085 385.111C202.691 385.495 203.426 385.622 204.126 385.464L239.204 377.572C239.904 377.415 240.513 376.986 240.897 376.379C241.281 375.773 241.408 375.039 241.25 374.338C241.093 373.638 240.663 373.029 240.057 372.645C239.45 372.262 238.716 372.135 238.016 372.292Z" fill="#E4E4E4"/>
<path id="Vector_45" d="M278.945 340.136L198.024 358.342C197.677 358.42 197.349 358.565 197.059 358.77C196.768 358.975 196.521 359.235 196.331 359.535C195.947 360.141 195.82 360.876 195.978 361.576C196.135 362.276 196.564 362.885 197.171 363.269C197.777 363.652 198.511 363.779 199.212 363.622L280.133 345.416C280.48 345.338 280.808 345.193 281.098 344.988C281.389 344.783 281.636 344.523 281.826 344.223C282.016 343.923 282.145 343.588 282.206 343.238C282.266 342.887 282.257 342.529 282.179 342.182C282.101 341.835 281.956 341.507 281.751 341.217C281.546 340.926 281.286 340.679 280.986 340.489C280.686 340.299 280.351 340.17 280.001 340.11C279.651 340.049 279.292 340.058 278.945 340.136H278.945Z" fill="#E6E6E6"/>
<path id="Vector_46" d="M276.6 329.71L195.678 347.916C195.331 347.994 195.003 348.139 194.713 348.344C194.422 348.549 194.175 348.809 193.985 349.109C193.601 349.715 193.474 350.449 193.632 351.15C193.789 351.85 194.219 352.459 194.825 352.843C195.432 353.226 196.166 353.353 196.866 353.196L277.788 334.99C278.488 334.833 279.097 334.403 279.48 333.797C279.864 333.19 279.991 332.456 279.834 331.756C279.676 331.056 279.247 330.447 278.64 330.063C278.034 329.679 277.3 329.552 276.6 329.71H276.6Z" fill="#E6E6E6"/>
<path id="Vector_47" d="M228.409 329.592L193.331 337.484C192.631 337.642 192.022 338.071 191.638 338.677C191.255 339.284 191.128 340.018 191.285 340.718C191.443 341.418 191.872 342.027 192.478 342.411C193.085 342.795 193.819 342.922 194.519 342.764L229.597 334.873C229.944 334.795 230.272 334.649 230.562 334.444C230.853 334.24 231.1 333.98 231.29 333.679C231.48 333.379 231.609 333.044 231.67 332.694C231.73 332.344 231.722 331.985 231.644 331.638C231.566 331.292 231.42 330.964 231.215 330.673C231.01 330.383 230.751 330.136 230.45 329.946C230.15 329.756 229.815 329.627 229.465 329.566C229.115 329.505 228.756 329.514 228.409 329.592Z" fill="#E6E6E6"/>
</g>
<path id="Vector_48" d="M120.129 346.009C119.75 346.009 119.374 346.084 119.023 346.229C118.672 346.374 118.353 346.587 118.084 346.855C117.816 347.124 117.603 347.443 117.457 347.793C117.312 348.144 117.237 348.52 117.237 348.9C117.237 349.008 117.326 571.727 117.326 571.727C117.405 572.433 117.742 573.086 118.273 573.56C118.803 574.034 119.489 574.296 120.2 574.295H522.973C523.684 574.296 524.37 574.034 524.9 573.56C525.431 573.086 525.768 572.433 525.847 571.727L550.917 349.225C550.963 348.82 550.922 348.411 550.799 348.023C550.675 347.635 550.471 347.277 550.2 346.974C549.93 346.669 549.598 346.425 549.226 346.258C548.855 346.092 548.451 346.007 548.044 346.009L120.129 346.009Z" fill="#3F3D56"/>
<path id="Vector_49" d="M148.552 358.339C144.465 358.351 140.548 359.97 137.646 362.847C134.744 365.724 133.09 369.627 133.043 373.713L133.546 546.32C133.528 548.368 133.916 550.4 134.687 552.297C135.459 554.194 136.598 555.92 138.04 557.375C139.482 558.829 141.198 559.984 143.088 560.772C144.979 561.56 147.007 561.965 149.055 561.965H404.732C434.056 561.984 462.358 551.192 484.223 531.652C506.088 512.112 519.982 485.197 523.245 456.055L532.312 375.585C532.557 373.416 532.341 371.219 531.678 369.139C531.015 367.058 529.92 365.141 528.465 363.514C527.011 361.886 525.229 360.583 523.236 359.691C521.243 358.8 519.084 358.339 516.901 358.339H148.552ZM540.363 358.339L540.317 357.339H540.363V358.339Z" fill="#FE4E59"/>
<path id="line2" d="M260.235 487.656H161.188C160.165 487.656 159.183 487.249 158.46 486.526C157.736 485.802 157.329 484.821 157.329 483.797C157.329 482.774 157.736 481.792 158.46 481.068C159.183 480.345 160.165 479.938 161.188 479.938H260.235C265.211 479.869 265.261 487.726 260.235 487.656Z" fill="#E4E4E4"/>
<path id="line1" d="M393.661 507.842H161.188C160.165 507.842 159.183 507.436 158.46 506.712C157.736 505.988 157.329 505.007 157.329 503.983C157.329 502.96 157.736 501.978 158.46 501.254C159.183 500.531 160.165 500.124 161.188 500.124H393.661C398.637 500.055 398.687 507.912 393.661 507.842Z" fill="#E4E4E4"/>
</g>
<defs>
<filter id="filter0_d_2_2" x="624.756" y="80.0804" width="136.095" height="221.515" filterUnits="userSpaceOnUse" color-interpolation-filters="sRGB">
<feFlood flood-opacity="0" result="BackgroundImageFix"/>
<feColorMatrix in="SourceAlpha" type="matrix" values="0 0 0 0 0 0 0 0 0 0 0 0 0 0 0 0 0 0 127 0" result="hardAlpha"/>
<feOffset dy="4"/>
<feGaussianBlur stdDeviation="2"/>
<feComposite in2="hardAlpha" operator="out"/>
<feColorMatrix type="matrix" values="0 0 0 0 0 0 0 0 0 0 0 0 0 0 0 0 0 0 0.25 0"/>
<feBlend mode="normal" in2="BackgroundImageFix" result="effect1_dropShadow_2_2"/>
<feBlend mode="normal" in="SourceGraphic" in2="effect1_dropShadow_2_2" result="shape"/>
</filter>
<clipPath id="clip0_2_2">
<rect width="865.67" height="576.443" fill="white"/>
</clipPath>
</defs>
</svg>
