<svg width="1243" height="958" viewBox="0 0 1243 958" fill="none" xmlns="http://www.w3.org/2000/svg">
<g id="undraw_file_sync_re_0pcx 1" clip-path="url(#clip0_2_2)">
<g id="table">
<path id="Vector" d="M181.989 549.856V338.686C181.989 335.671 183.187 332.779 185.319 330.646C187.452 328.514 190.344 327.316 193.359 327.316C196.375 327.316 199.267 328.514 201.399 330.646C203.531 332.779 204.729 335.671 204.729 338.686V549.856C204.729 552.872 203.531 555.764 201.399 557.896C199.267 560.029 196.375 561.227 193.359 561.227C190.344 561.227 187.452 560.029 185.319 557.896C183.187 555.764 181.989 552.872 181.989 549.856Z" fill="#F0F0F0"/>
<path id="Vector_2" d="M154.782 549.856V338.686C154.782 335.671 155.98 332.779 158.112 330.646C160.245 328.514 163.137 327.316 166.152 327.316C169.168 327.316 172.06 328.514 174.192 330.646C176.324 332.779 177.522 335.671 177.522 338.686V549.856C177.522 552.872 176.324 555.764 174.192 557.896C172.06 560.029 169.168 561.227 166.152 561.227C163.137 561.227 160.245 560.029 158.112 557.896C155.98 555.764 154.782 552.872 154.782 549.856V549.856Z" fill="#F0F0F0"/>
<path id="Vector_3" d="M127.575 549.856V338.686C127.575 335.671 128.773 332.779 130.905 330.646C133.037 328.514 135.93 327.316 138.945 327.316C141.961 327.316 144.853 328.514 146.985 330.646C149.117 332.779 150.315 335.671 150.315 338.686V549.856C150.315 552.872 149.117 555.764 146.985 557.896C144.853 560.029 141.961 561.227 138.945 561.227C135.93 561.227 133.037 560.029 130.905 557.896C128.773 555.764 127.575 552.872 127.575 549.856Z" fill="#F0F0F0"/>
<path id="Vector_4" d="M1132.67 956.358L1143.17 956.598L1079.85 618.34L1069.35 620.319L1085.89 708.068H1032.62L1049.15 620.319L1038.65 618.34L975.865 956.598L985.837 956.358L1018.85 781.165H1099.66L1132.67 956.358ZM1021.29 768.17L1030.17 721.063H1088.33L1097.21 768.17H1021.29Z" fill="#CACACA"/>
<path id="Vector_5" d="M674.151 555.244V444.16C674.151 440.862 679.252 438.179 685.522 438.179C691.791 438.179 696.892 440.862 696.892 444.16V555.244C696.892 558.542 691.791 561.226 685.522 561.226C679.252 561.226 674.151 558.542 674.151 555.244Z" fill="#F0F0F0"/>
<path id="Vector_6" d="M646.945 555.244V444.16C646.945 440.862 652.045 438.179 658.315 438.179C664.584 438.179 669.685 440.862 669.685 444.16V555.244C669.685 558.542 664.584 561.226 658.315 561.226C652.045 561.226 646.945 558.542 646.945 555.244Z" fill="#F0F0F0"/>
<path id="Vector_7" d="M619.737 555.244V444.16C619.737 440.862 624.838 438.179 631.108 438.179C637.377 438.179 642.478 440.862 642.478 444.16V555.244C642.478 558.542 637.377 561.226 631.108 561.226C624.838 561.226 619.737 558.542 619.737 555.244Z" fill="#F0F0F0"/>
<path id="Vector_8" d="M848.624 473.553C848.574 473.215 848.452 472.892 848.269 472.605C848.085 472.317 847.843 472.071 847.558 471.883L761.839 415.291C763.131 414.752 764.211 413.806 764.916 412.596H764.916C765.773 411.102 766.003 409.33 765.557 407.667C765.112 406.004 764.026 404.585 762.538 403.72L755.504 399.659C754.011 398.803 752.239 398.572 750.576 399.018C748.914 399.463 747.495 400.549 746.63 402.037C746.162 402.855 745.881 403.767 745.806 404.706L683.931 363.855C681.852 358.822 678.702 354.303 674.699 350.612C670.696 346.922 665.936 344.148 660.751 342.485V324.473H638.011V342.485C630.466 344.898 623.883 349.645 619.212 356.043C614.541 362.44 612.023 370.156 612.022 378.078V382.951H634.762C634.762 386.828 636.303 390.547 639.044 393.288C641.786 396.03 645.504 397.57 649.381 397.57C653.258 397.57 656.976 396.03 659.718 393.288C662.46 390.547 664 386.828 664 382.951H686.74V378.078C686.738 375.742 686.518 373.411 686.082 371.116L842.615 474.459L777.592 553.518C777.087 553.516 776.585 553.511 776.076 553.511C770.889 553.511 765.862 553.634 761.072 553.845C761.361 553.042 761.487 552.189 761.443 551.337C761.349 549.618 760.578 548.006 759.299 546.854C758.02 545.701 756.337 545.102 754.617 545.187L746.507 545.609C744.788 545.704 743.176 546.475 742.023 547.754C740.871 549.033 740.272 550.716 740.356 552.436C740.416 553.452 740.718 554.439 741.236 555.314C726.895 556.839 717.602 558.94 717.602 560.008C717.602 561.76 742.556 560.093 773.79 560.012C773.933 560.419 774.182 560.779 774.51 561.058C774.839 561.336 775.236 561.522 775.66 561.596C776.084 561.671 776.52 561.631 776.924 561.481C777.328 561.331 777.685 561.077 777.958 560.744L778.56 560.013C809.701 560.099 834.551 561.756 834.551 560.008C834.551 558.36 812.457 554.261 783.831 553.603L848.098 475.464C848.314 475.2 848.473 474.893 848.564 474.564C848.655 474.235 848.675 473.891 848.624 473.553Z" fill="#CCCCCC"/>
<path id="Vector_9" d="M850.969 957.17H650.829C646.785 957.166 642.907 955.556 640.047 952.696C637.188 949.836 635.579 945.958 635.575 941.913V613.438C635.57 609.823 634.133 606.359 631.577 603.803C629.022 601.248 625.557 599.81 621.943 599.806H153.795C150.181 599.81 146.716 601.248 144.161 603.803C141.605 606.359 140.168 609.823 140.163 613.438V941.913C140.159 945.958 138.55 949.836 135.69 952.696C132.83 955.557 128.953 957.166 124.908 957.17H118.06C114.015 957.166 110.138 955.557 107.278 952.696C104.418 949.836 102.809 945.958 102.805 941.913V595.745C102.815 586.055 106.669 576.765 113.521 569.914C120.372 563.062 129.662 559.208 139.351 559.197H829.678C839.368 559.208 848.657 563.062 855.509 569.914C862.36 576.766 866.214 586.056 866.225 595.745V941.913C866.22 945.958 864.611 949.836 861.751 952.696C858.891 955.557 855.014 957.166 850.969 957.17V957.17Z" fill="#CACACA"/>
<path id="Vector_10" d="M865.413 644.476H636.387V654.223H865.413V644.476Z" fill="white"/>
<path id="Vector_11" d="M865.413 776.051H636.387V785.798H865.413V776.051Z" fill="white"/>
<path id="Vector_12" d="M446.804 557.592L440.222 554.821L435.706 521.821H375.575L370.68 554.686L364.791 557.63C364.509 557.771 364.284 558.003 364.15 558.289C364.017 558.574 363.983 558.896 364.056 559.203C364.128 559.509 364.302 559.782 364.549 559.978C364.796 560.173 365.102 560.28 365.417 560.28H446.262C446.585 560.28 446.898 560.168 447.148 559.964C447.397 559.759 447.569 559.475 447.633 559.158C447.697 558.842 447.649 558.513 447.498 558.227C447.347 557.942 447.102 557.718 446.804 557.592V557.592Z" fill="#E6E6E6"/>
<path id="Vector_13" d="M553.663 526.212H258.278C256.728 526.208 255.243 525.59 254.149 524.493C253.054 523.396 252.439 521.909 252.439 520.359V478.704H559.502V520.359C559.502 521.909 558.887 523.396 557.792 524.493C556.698 525.59 555.213 526.208 553.663 526.212V526.212Z" fill="#CCCCCC"/>
<path id="Vector_14" d="M559.811 498.391H252.17V320.157C252.172 318.287 252.916 316.494 254.238 315.171C255.561 313.848 257.354 313.105 259.224 313.102H552.756C554.626 313.105 556.419 313.848 557.742 315.171C559.064 316.494 559.809 318.287 559.811 320.157V498.391Z" fill="#3F3D56"/>
<path id="Vector_15" d="M541.436 485.455H270.544C269.102 485.454 267.719 484.88 266.7 483.86C265.68 482.841 265.107 481.458 265.105 480.016V331.478C265.107 330.036 265.68 328.653 266.7 327.633C267.719 326.614 269.102 326.04 270.544 326.038H541.436C542.878 326.04 544.261 326.614 545.28 327.633C546.3 328.653 546.874 330.036 546.875 331.478V480.016C546.874 481.458 546.3 482.841 545.28 483.86C544.261 484.88 542.878 485.454 541.436 485.455V485.455Z" fill="white"/>
<path id="Vector_16" d="M1051.94 634.172C1095.71 634.172 1131.19 622.61 1131.19 608.348C1131.19 594.085 1095.71 582.523 1051.94 582.523C1008.17 582.523 972.692 594.085 972.692 608.348C972.692 622.61 1008.17 634.172 1051.94 634.172Z" fill="#CACACA"/>
</g>
<g id="man2">
<path id="Vector_17" d="M867.028 936.562L845.983 930.745L858.406 846.8L889.466 855.388L867.028 936.562Z" fill="#9E616A"/>
<path id="Vector_18" d="M866.756 958.446L798.9 939.688L799.137 938.83C801.073 931.825 805.713 925.876 812.035 922.292C818.357 918.708 825.844 917.782 832.848 919.717L832.85 919.718L874.294 931.175L866.756 958.446Z" fill="#2F2E41"/>
<path id="Vector_19" d="M806.013 936.835L786.039 928.015L810.552 846.776L840.03 859.792L806.013 936.835Z" fill="#9E616A"/>
<path id="Vector_20" d="M802.557 958.447L738.156 930.007L738.515 929.193C741.451 922.544 746.907 917.335 753.684 914.709C760.46 912.084 768.002 912.258 774.65 915.193L774.652 915.194L813.986 932.563L802.557 958.447Z" fill="#2F2E41"/>
<path id="Vector_21" d="M1106.5 547.298C1106.5 547.298 1117.08 580.099 1052.13 621.581L968.476 704.943L881.556 912.873L829.953 889.737L840.074 862.721L846.865 844.592L850.339 835.317L854.064 825.375L909.309 677.902L955.715 596.645L957.062 552.554L968.476 521.474L1051.29 492.087L1106.5 547.298Z" fill="#2F2E41"/>
<path id="Vector_22" d="M1064.27 548.923C1064.27 548.923 1074.85 581.724 1009.9 623.206L926.244 706.567L839.324 914.498L787.721 891.362L797.842 864.345L804.633 846.216L808.108 836.941L811.832 826.999L867.077 679.527L882.615 652.32C903.114 616.428 928.022 583.241 956.759 553.533L971.991 537.786L973.615 513.421L1009.06 493.712L1064.27 548.923Z" fill="#2F2E41"/>
<path id="Vector_23" d="M1014.22 388.343L1040.21 333.114L1085.56 326.927C1085.56 326.927 1120.98 372.048 1111.68 435.45C1108.19 459.226 1105.35 482.897 1105.18 503.674C1105.14 509.203 1109.97 511.671 1110.06 516.669C1110.14 521.579 1100.89 529.577 1103.56 532.913C1107.38 537.512 1109.65 543.195 1110.06 549.157C1106.84 556.818 1009.42 515.315 968.476 521.474L1014.22 388.343Z" fill="#C72630"/>
</g>
<g id="head2">
<path id="Vector_24" d="M1078.64 299.123C1090.22 279.647 1083.81 254.474 1064.34 242.897C1044.86 231.32 1019.69 237.723 1008.12 257.199C996.54 276.674 1002.94 301.847 1022.42 313.424C1041.89 325.001 1067.06 318.598 1078.64 299.123Z" fill="#9E616A"/>
<path id="Vector_25" d="M1069.6 263.431C1069.53 264.51 1069.42 265.94 1069.29 267.557C1069.16 271.985 1070.41 276.343 1072.86 280.033C1075.16 283.914 1072.42 307.356 1072.42 307.356C1139.61 260.515 1086.52 213.455 1065.75 217.639C1066.19 211.682 1049.25 214.042 1049.25 214.042C1042.79 203.99 1028.65 217.333 1028.65 217.333L1031.38 212.741C1020.4 215.534 1009.54 249.477 1009.54 249.477C1013.27 264.12 1070.04 257.474 1069.6 263.431Z" fill="#2F2E41"/>
</g>
<g id="man-hand">
<path id="Vector_26" d="M837.989 345.179C840.58 344.806 843.222 345.005 845.728 345.763C848.234 346.521 850.543 347.82 852.493 349.567C854.443 351.314 855.986 353.467 857.014 355.875C858.042 358.283 858.529 360.887 858.441 363.504L917.834 386.367L890.925 405.593L838.65 380.935C834.264 380.496 830.192 378.464 827.204 375.223C824.216 371.983 822.52 367.758 822.439 363.351C822.357 358.944 823.895 354.659 826.761 351.31C829.627 347.961 833.622 345.78 837.989 345.179V345.179Z" fill="#9E616A"/>
<path id="Vector_27" d="M1063.5 333.956L1073.55 352.225C1071.12 363.812 1064.85 374.238 1055.74 381.806C1040.36 394.781 959.924 443.105 959.924 443.105L858.377 392.123L876.141 368.516L955.865 395.235C985.439 367.307 1021.13 346.674 1060.09 334.981L1063.5 333.956Z" fill="#C72630"/>
<path id="Vector_28" d="M808.936 410.069C832.026 379.354 850.28 345.285 863.063 309.047C863.804 306.879 863.751 304.519 862.915 302.387C862.078 300.254 860.512 298.488 858.495 297.402L779.481 255.062C778.202 254.372 776.784 253.983 775.332 253.924C773.881 253.865 772.435 254.138 771.105 254.722C769.75 255.311 768.547 256.201 767.588 257.325C766.63 258.448 765.94 259.776 765.571 261.206C756.374 296.127 739.087 328.392 715.108 355.391C714.121 356.49 713.398 357.8 712.993 359.22C712.589 360.641 712.514 362.136 712.774 363.59C713.024 365.021 713.598 366.376 714.451 367.552C715.304 368.728 716.414 369.693 717.696 370.375L796.711 412.716C798.732 413.793 801.07 414.119 803.309 413.634C805.548 413.15 807.542 411.886 808.936 410.069V410.069Z" fill="#CCCCCC"/>
<path id="Vector_29" d="M803.544 406.017C803.119 406.548 802.522 406.913 801.857 407.051C801.191 407.188 800.498 407.089 799.898 406.77L720.882 364.429C720.499 364.229 720.167 363.943 719.912 363.593C719.657 363.244 719.487 362.839 719.415 362.413C719.333 361.962 719.356 361.499 719.483 361.059C719.61 360.619 719.837 360.214 720.146 359.877C744.832 332.082 762.628 298.866 772.096 262.917C772.205 262.473 772.416 262.06 772.712 261.711C773.007 261.362 773.38 261.086 773.8 260.905C774.196 260.728 774.627 260.645 775.06 260.663C775.493 260.681 775.916 260.799 776.296 261.008L855.309 303.348C855.908 303.671 856.375 304.193 856.629 304.824C856.884 305.455 856.909 306.155 856.703 306.804C844.148 342.393 826.221 375.852 803.544 406.017V406.017Z" fill="white"/>
<path id="Vector_30" d="M775.901 301.235L830.399 333.18C835.822 336.358 840.732 327.938 835.318 324.764L780.819 292.819C775.397 289.641 770.487 298.061 775.901 301.235V301.235Z" fill="#FE4E59"/>
<path id="Vector_31" d="M766.155 319.103L820.654 351.048C826.076 354.227 830.986 345.806 825.572 342.633L771.074 310.687C765.651 307.509 760.741 315.929 766.155 319.103V319.103Z" fill="#FE4E59"/>
<path id="Vector_32" d="M754.785 338.595L809.283 370.541C814.706 373.719 819.616 365.299 814.202 362.125L759.704 330.18C754.281 327.001 749.371 335.422 754.785 338.595Z" fill="#FE4E59"/>
<path id="Vector_33" d="M743.415 354.839L797.913 386.785C803.336 389.963 808.246 381.542 802.832 378.369L748.333 346.424C742.911 343.245 738.001 351.666 743.415 354.839V354.839Z" fill="#FE4E59"/>
</g>
<g id="man-hand2">
<path id="Vector_34" d="M1028.12 573.697L1048.58 619.708C1049.07 620.81 1049.28 622.017 1049.19 623.22C1049.1 624.424 1048.71 625.586 1048.06 626.601C1047.29 627.815 1046.18 628.774 1044.87 629.357C1043.56 629.941 1042.1 630.123 1040.68 629.881C1040.2 629.807 1039.73 629.681 1039.27 629.505C1037.47 628.806 1036.01 627.42 1035.22 625.649L1014.76 579.637C1014.37 578.76 1014.15 577.815 1014.13 576.855C1014.11 575.896 1014.27 574.941 1014.61 574.044C1015.31 572.235 1016.7 570.776 1018.47 569.988C1020.24 569.2 1022.25 569.148 1024.06 569.844C1025.87 570.54 1027.33 571.925 1028.12 573.697Z" fill="#FE4E59"/>
<path id="Vector_35" d="M1046.93 615.998L1051.03 625.284L1053.12 638.449C1053.26 639.316 1053.11 640.204 1052.69 640.976C1052.27 641.748 1051.61 642.359 1050.81 642.716C1050.01 643.072 1049.11 643.154 1048.25 642.948C1047.4 642.742 1046.64 642.259 1046.09 641.576L1037.61 631.022L1033.57 621.938L1046.93 615.998Z" fill="#3F3D56"/>
<path id="Vector_36" d="M1010.21 560.896L1013.14 579.316C1013.24 579.919 1013.47 580.492 1013.83 580.991C1014.18 581.489 1014.64 581.9 1015.18 582.192C1015.71 582.483 1016.31 582.647 1016.92 582.671C1017.53 582.695 1018.14 582.578 1018.7 582.33L1021.6 581.038L1027.21 593.654C1027.39 594.047 1027.71 594.354 1028.11 594.508C1028.52 594.662 1028.96 594.65 1029.36 594.476C1029.75 594.301 1030.06 593.977 1030.21 593.575C1030.37 593.174 1030.36 592.727 1030.18 592.334L1024.57 579.718L1027.48 578.425C1028.44 577.996 1029.2 577.202 1029.58 576.218C1029.96 575.234 1029.93 574.14 1029.51 573.174C1029.36 572.854 1029.18 572.555 1028.96 572.283L1017.25 557.768C1016.69 557.085 1015.93 556.603 1015.08 556.397C1014.23 556.191 1013.33 556.273 1012.53 556.63C1011.73 556.986 1011.06 557.598 1010.64 558.369C1010.23 559.141 1010.07 560.029 1010.21 560.896Z" fill="#3F3D56"/>
<path id="Vector_37" d="M1023.71 593.511C1023.79 590.894 1024.43 588.324 1025.6 585.983C1026.78 583.642 1028.45 581.587 1030.5 579.962C1032.55 578.337 1034.94 577.181 1037.49 576.577C1040.03 575.973 1042.68 575.935 1045.25 576.466L1077.86 521.815L1092.24 551.599L1059.06 598.93C1057.88 603.179 1055.19 606.847 1051.49 609.242C1047.79 611.636 1043.34 612.589 1038.98 611.921C1034.62 611.253 1030.66 609.01 1027.85 605.617C1025.04 602.224 1023.56 597.916 1023.71 593.511V593.511Z" fill="#9E616A"/>
<path id="Vector_38" d="M1078.94 574.216L1057.15 551.809L1095.85 477.037L1060.98 426.334L1051.9 360.6L1072.45 353.131L1072.74 353.219C1084.04 357.428 1093.56 365.378 1099.73 375.748C1107.23 388.09 1127.36 435.768 1138.68 463.089C1140.9 468.38 1141.72 474.15 1141.07 479.849C1140.42 485.547 1138.32 490.985 1134.97 495.643L1078.94 574.216Z" fill="#C72630"/>
</g>
<g id="head">
<path id="Vector_39" d="M545.441 363.372C552.497 333.702 534.165 303.929 504.496 296.873C474.827 289.817 445.056 308.149 438 337.82C430.944 367.491 449.276 397.263 478.945 404.319C508.614 411.376 538.385 393.043 545.441 363.372Z" fill="#FFB8B8"/>
<path id="Vector_40" d="M466.776 404.306C463.452 404.306 459.785 402.704 455.65 399.458C443.484 389.905 434.788 376.623 430.895 361.651C427.003 346.679 428.13 330.844 434.103 316.574C437.11 309.393 442.732 299.632 452.446 293.912C459.428 289.802 467.631 288.317 474.771 287.248C480.953 286.321 487.212 285.584 493.375 285.059C500.738 284.429 509.244 284.004 517.002 286.951C522.686 289.111 527.524 292.927 532.202 296.616C533.833 297.901 535.519 299.232 537.208 300.463C541.3 303.656 546.021 305.948 551.06 307.191C552.123 307.411 553.127 307.857 554.003 308.499C554.879 309.141 555.607 309.963 556.138 310.911C556.68 311.874 557.008 312.942 557.102 314.042C557.195 315.143 557.052 316.252 556.68 317.292C555.95 319.339 555.292 321.183 556.624 323.182C557.118 323.886 557.777 324.459 558.543 324.849C559.309 325.24 560.16 325.436 561.02 325.422C561.473 325.415 561.922 325.521 562.324 325.731C562.727 325.941 563.07 326.248 563.324 326.625C563.581 326.998 563.743 327.428 563.795 327.878C563.848 328.328 563.789 328.785 563.625 329.207L563.411 329.758C563.983 329.811 564.533 330.002 565.014 330.315C565.495 330.628 565.893 331.054 566.174 331.555C566.591 332.268 566.752 333.103 566.631 333.92C566.509 334.737 566.113 335.489 565.506 336.05C560.579 340.741 554.435 343.957 547.773 345.332C543.213 346.226 538.523 346.216 533.968 345.3L533.235 345.157L533.325 344.345C514.899 337.773 498.266 348.926 488.784 361.677L487.414 360.813C487.65 360.337 487.786 359.82 487.816 359.29C487.846 358.761 487.769 358.231 487.588 357.732C487.397 357.134 487.09 356.579 486.685 356.099C486.279 355.619 485.783 355.225 485.224 354.937C484.095 354.471 482.853 354.35 481.655 354.589C480.457 354.828 479.357 355.417 478.493 356.281C477.613 357.203 476.935 358.298 476.501 359.497C476.068 360.695 475.889 361.971 475.976 363.243C476.225 365.938 476.912 368.575 478.009 371.049C478.454 372.233 478.916 373.457 479.29 374.691C481.389 381.702 480.83 389.241 477.719 395.865C476.284 398.887 473.688 402.74 469.474 403.935C468.596 404.183 467.688 404.308 466.776 404.306V404.306Z" fill="#2F2E41"/>
</g>
<g id="chair">
<path id="Vector_41" d="M624.821 435.831C624.673 437.079 624.623 438.337 624.673 439.593L533.594 505.858L508.573 494.783L486.925 530.363L529.316 554.273C532.74 556.204 536.699 556.973 540.598 556.463C544.496 555.953 548.124 554.192 550.937 551.444L642.605 461.903C647.297 463.095 652.241 462.831 656.779 461.145C661.317 459.459 665.234 456.431 668.01 452.464C670.785 448.497 672.287 443.779 672.315 438.937C672.344 434.096 670.898 429.361 668.17 425.361C665.442 421.361 661.561 418.287 657.043 416.547C652.525 414.808 647.585 414.484 642.879 415.621C638.173 416.758 633.925 419.3 630.699 422.91C627.473 426.52 625.423 431.027 624.821 435.831V435.831Z" fill="#FFB6B6"/>
<path id="Vector_42" d="M530.649 508.28L504.088 552.541C503.333 553.8 502.314 554.882 501.103 555.712C499.891 556.543 498.515 557.102 497.068 557.353C495.621 557.603 494.137 557.539 492.717 557.164C491.297 556.789 489.974 556.113 488.839 555.181L449.072 522.518C442.652 518.614 438.042 512.324 436.253 505.027C434.463 497.73 435.64 490.02 439.525 483.589C443.41 477.158 449.686 472.529 456.978 470.718C464.269 468.907 471.982 470.062 478.424 473.928L525.804 493.581C527.161 494.145 528.38 494.993 529.378 496.07C530.377 497.147 531.132 498.426 531.592 499.821C532.052 501.216 532.205 502.694 532.043 504.154C531.88 505.613 531.404 507.021 530.649 508.28L530.649 508.28Z" fill="#7863FF"/>
<path id="Vector_43" d="M416.846 892.993H468.909V806.713H416.846V892.993Z" fill="#CACACA"/>
<path id="Vector_44" d="M466.299 852.367L459.617 862.215L584.568 947.007L591.25 937.159L466.299 852.367Z" fill="#CACACA"/>
<path id="Vector_45" d="M419.455 852.367L294.504 937.159L301.186 947.007L426.137 862.215L419.455 852.367Z" fill="#CACACA"/>
<path id="Vector_46" d="M587.909 958.447C596.946 958.447 604.272 951.12 604.272 942.083C604.272 933.046 596.946 925.72 587.909 925.72C578.872 925.72 571.547 933.046 571.547 942.083C571.547 951.12 578.872 958.447 587.909 958.447Z" fill="#CACACA"/>
<path id="Vector_47" d="M442.133 958.447C451.17 958.447 458.496 951.12 458.496 942.083C458.496 933.046 451.17 925.72 442.133 925.72C433.097 925.72 425.771 933.046 425.771 942.083C425.771 951.12 433.097 958.447 442.133 958.447Z" fill="#CACACA"/>
<path id="Vector_48" d="M297.845 958.447C306.882 958.447 314.208 951.12 314.208 942.083C314.208 933.046 306.882 925.72 297.845 925.72C288.808 925.72 281.483 933.046 281.483 942.083C281.483 951.12 288.808 958.447 297.845 958.447Z" fill="#CACACA"/>
<path id="Vector_49" d="M448.084 857.291H436.183V942.083H448.084V857.291Z" fill="#CACACA"/>
<path id="Vector_50" d="M431.721 845.39H454.034V730.846H431.721V845.39Z" fill="#CACACA"/>
<path id="Vector_51" d="M378.914 748.697V721.921C378.92 716.991 380.881 712.264 384.367 708.778C387.852 705.292 392.579 703.331 397.508 703.326H497.171C502.101 703.331 506.827 705.292 510.313 708.778C513.799 712.264 515.76 716.991 515.765 721.921V748.697C515.76 753.627 513.799 758.354 510.313 761.84C506.827 765.326 502.101 767.286 497.171 767.292H397.508C392.579 767.286 387.852 765.326 384.367 761.84C380.881 758.354 378.92 753.627 378.914 748.697V748.697Z" fill="#3F3D56"/>
<path id="Vector_52" d="M558.918 931.728L586.479 931.726L599.594 860.236L558.915 860.237L558.918 931.728Z" fill="#FFB8B8"/>
<path id="Vector_53" d="M551.889 958.447L640.763 958.443V957.319C640.763 952.776 639.868 948.278 638.13 944.081C636.391 939.884 633.843 936.07 630.631 932.858C627.419 929.646 623.606 927.097 619.409 925.359C615.212 923.62 610.714 922.726 606.172 922.726H606.168L551.887 922.728L551.889 958.447Z" fill="#2F2E41"/>
<path id="Vector_54" d="M600.143 887.395L655.092 764.169C659.68 753.783 660.187 742.05 656.513 731.306C652.839 720.563 645.253 711.598 635.266 706.197L516.08 642.282L461.692 637.655L411.524 633.095L411.162 633.708C410.699 634.489 399.913 653.122 407.204 673.552C412.735 689.049 427.121 701.154 449.963 709.53C503.278 729.08 564.868 745.789 588.873 752.064C589.934 752.336 590.925 752.828 591.782 753.51C592.639 754.192 593.341 755.048 593.844 756.021C594.348 756.982 594.647 758.038 594.723 759.121C594.799 760.204 594.65 761.291 594.285 762.314L543.236 877.012C542.702 878.467 542.51 880.024 542.675 881.565C542.839 883.106 543.354 884.588 544.182 885.898C545.009 887.207 546.126 888.31 547.447 889.119C548.768 889.929 550.257 890.425 551.8 890.568L589.945 893.345C590.268 893.376 590.591 893.391 590.912 893.391C592.865 893.391 594.777 892.824 596.415 891.76C598.053 890.696 599.348 889.18 600.143 887.395V887.395Z" fill="#2F2E41"/>
<path id="Vector_55" d="M540.932 931.728L568.494 931.726L581.608 860.236L540.929 860.237L540.932 931.728Z" fill="#FFB8B8"/>
<path id="Vector_56" d="M533.903 958.447L622.777 958.443V957.319C622.777 952.776 621.882 948.278 620.144 944.081C618.405 939.884 615.857 936.07 612.645 932.858C609.433 929.646 605.62 927.097 601.423 925.359C597.226 923.62 592.728 922.726 588.186 922.726H588.182L533.901 922.728L533.903 958.447Z" fill="#2F2E41"/>
<path id="Vector_57" d="M579.909 894.14L634.858 770.914C639.446 760.528 639.953 748.794 636.279 738.051C632.605 727.308 625.019 718.343 615.032 712.942L495.846 649.027L441.458 644.4L402.164 640.992L402.169 640.453C401.707 641.234 390.92 659.867 398.211 680.297C403.742 695.794 406.887 707.899 429.729 716.275C483.044 735.825 544.634 752.534 568.639 758.809C569.699 759.081 570.691 759.573 571.548 760.255C572.405 760.937 573.107 761.793 573.61 762.766C574.114 763.728 574.413 764.783 574.489 765.866C574.565 766.949 574.416 768.036 574.051 769.059L523.002 883.757C522.468 885.212 522.276 886.769 522.441 888.31C522.605 889.851 523.12 891.333 523.948 892.643C524.775 893.953 525.892 895.055 527.213 895.865C528.534 896.674 530.023 897.17 531.566 897.313L569.711 900.09C570.034 900.121 570.357 900.137 570.678 900.137C572.631 900.136 574.543 899.569 576.181 898.505C577.819 897.441 579.114 895.925 579.909 894.14V894.14Z" fill="#2F2E41"/>
<path id="Vector_58" d="M682.06 562.761C705.15 532.046 723.403 497.977 736.187 461.739C736.927 459.571 736.874 457.211 736.038 455.079C735.201 452.946 733.635 451.18 731.619 450.094L652.604 407.754C651.326 407.064 649.907 406.675 648.455 406.616C647.004 406.557 645.558 406.83 644.228 407.414C642.873 408.003 641.671 408.893 640.712 410.016C639.753 411.14 639.063 412.468 638.695 413.898C629.498 448.819 612.211 481.084 588.232 508.083C587.245 509.182 586.521 510.492 586.117 511.912C585.712 513.333 585.637 514.827 585.898 516.282C586.148 517.713 586.721 519.068 587.574 520.244C588.427 521.42 589.537 522.385 590.82 523.067L669.834 565.407C671.856 566.485 674.194 566.811 676.432 566.326C678.671 565.841 680.665 564.578 682.06 562.761Z" fill="#CCCCCC"/>
<path id="Vector_59" d="M676.668 558.709C676.243 559.24 675.646 559.605 674.98 559.743C674.314 559.88 673.621 559.781 673.021 559.462L594.006 517.121C593.622 516.921 593.29 516.635 593.035 516.285C592.781 515.935 592.611 515.531 592.539 515.105C592.456 514.654 592.479 514.191 592.606 513.751C592.733 513.311 592.96 512.906 593.269 512.569C617.955 484.774 635.752 451.558 645.219 415.609C645.329 415.165 645.539 414.752 645.835 414.403C646.131 414.054 646.503 413.778 646.923 413.597C647.319 413.42 647.75 413.337 648.184 413.355C648.617 413.373 649.04 413.491 649.42 413.7L728.433 456.04C729.031 456.363 729.498 456.885 729.753 457.516C730.007 458.147 730.033 458.847 729.826 459.496C717.272 495.085 699.345 528.544 676.668 558.709Z" fill="white"/>
<path id="Vector_60" d="M649.024 453.927L703.523 485.872C708.945 489.05 713.855 480.63 708.442 477.456L653.943 445.511C648.521 442.333 643.61 450.753 649.024 453.927V453.927Z" fill="#CCCCCC"/>
<path id="Vector_61" d="M639.278 471.795L693.777 503.74C699.199 506.919 704.11 498.498 698.696 495.325L644.197 463.379C638.775 460.201 633.864 468.621 639.278 471.795V471.795Z" fill="#CCCCCC"/>
<path id="Vector_62" d="M631.621 489.593L681.185 519.019C686.116 521.946 691.39 515.894 686.467 512.971L636.903 483.545C631.972 480.618 626.698 486.67 631.621 489.593Z" fill="#CCCCCC"/>
<path id="Vector_63" d="M616.538 507.531L671.037 539.477C676.459 542.655 681.369 534.234 675.956 531.061L621.457 499.116C616.035 495.937 611.124 504.358 616.538 507.531V507.531Z" fill="#CCCCCC"/>
<path id="Vector_64" d="M523.559 646.755L414.286 646.101L414.256 645.324C412.173 590.495 418.873 540.827 434.741 493.486C434.966 491.714 435.208 489.82 435.446 487.96C438.156 466.78 440.308 449.964 460.448 443.701C458.77 441.47 457.781 438.796 457.603 436.01C457.476 434.159 457.718 432.3 458.317 430.544C458.915 428.787 459.856 427.166 461.087 425.777C462.264 424.435 463.696 423.341 465.301 422.558C466.905 421.776 468.649 421.32 470.431 421.218L509.325 419.893C511.369 419.88 513.358 420.554 514.972 421.808C517.933 424.008 520.015 427.19 520.843 430.785C521.672 434.38 521.193 438.152 519.494 441.426C519.036 442.338 518.86 442.754 518.793 442.935C520.176 450.179 524.279 458.785 528.62 467.892C534.837 480.931 541.882 495.71 543.694 511.52C544.672 520.057 544.266 528.696 542.49 537.103C541.679 541.633 541.492 546.253 541.935 550.834C542.29 557.626 542.625 564.04 538.786 570.242C537.807 571.924 536.688 573.716 535.374 575.702L529.973 588.613L523.559 646.755Z" fill="#FE4E59"/>
<path id="Vector_65" d="M359.577 723.485V500.194C359.585 492.918 362.479 485.943 367.624 480.798C372.768 475.653 379.744 472.759 387.019 472.75H394.61C401.885 472.759 408.861 475.653 414.005 480.798C419.15 485.943 422.044 492.918 422.052 500.194V723.485C422.044 730.761 419.15 737.736 414.005 742.881C408.861 748.026 401.885 750.92 394.61 750.929H387.019C379.744 750.92 372.768 748.026 367.624 742.881C362.479 737.736 359.585 730.761 359.577 723.485V723.485Z" fill="#3F3D56"/>
<path id="Vector_66" d="M652.607 522.481C651.823 523.463 651.117 524.505 650.496 525.598L538.163 533.8L522.757 511.186L485.591 529.978L508.975 572.662C510.864 576.111 513.821 578.853 517.401 580.478C520.981 582.103 524.992 582.522 528.831 581.674L653.95 554.012C657.306 557.502 661.645 559.887 666.389 560.85C671.133 561.814 676.059 561.31 680.51 559.406C684.961 557.501 688.727 554.287 691.306 550.19C693.886 546.093 695.158 541.308 694.952 536.471C694.746 531.634 693.072 526.974 690.153 523.112C687.234 519.249 683.209 516.367 678.612 514.848C674.015 513.329 669.065 513.246 664.419 514.609C659.774 515.973 655.654 518.718 652.607 522.481V522.481Z" fill="#FFB6B6"/>
<path id="Vector_67" d="M534.383 534.303L488.462 557.875C487.156 558.545 485.72 558.927 484.253 558.992C482.786 559.058 481.321 558.807 479.96 558.256C478.599 557.704 477.372 556.866 476.364 555.798C475.356 554.731 474.59 553.458 474.118 552.067L457.581 503.333C454.19 496.643 453.587 488.882 455.903 481.748C458.219 474.614 463.265 468.688 469.939 465.265C449.583 475.714 491.978 446.033 508.159 477.558L538.027 519.261C538.881 520.456 539.469 521.82 539.749 523.262C540.029 524.704 539.995 526.189 539.649 527.616C539.303 529.044 538.654 530.38 537.745 531.534C536.836 532.688 535.69 533.632 534.383 534.303Z" fill="#FE4E59"/>
</g>
<path id="circle" d="M399.536 442.783C417.601 442.783 432.246 428.66 432.246 411.239C432.246 393.818 417.601 379.695 399.536 379.695C381.47 379.695 366.825 393.818 366.825 411.239C366.825 428.66 381.47 442.783 399.536 442.783Z" fill="#FE4E59"/>
<path id="Vector_68" d="M394.437 416.493H387.853L399.505 392.546L411.218 416.471H404.629V426.427H394.437V416.493Z" fill="white"/>
</g>
<defs>
<clipPath id="clip0_2_2">
<rect width="1243" height="958" fill="white"/>
</clipPath>
</defs>
</svg>
